<?xml version="1.0" encoding="UTF-8" standalone="no"?>
<!-- Created with Inkscape (http://www.inkscape.org/) -->

<svg
   xmlns:dc="http://purl.org/dc/elements/1.1/"
   xmlns:cc="http://creativecommons.org/ns#"
   xmlns:rdf="http://www.w3.org/1999/02/22-rdf-syntax-ns#"
   xmlns:svg="http://www.w3.org/2000/svg"
   xmlns="http://www.w3.org/2000/svg"
   xmlns:sodipodi="http://sodipodi.sourceforge.net/DTD/sodipodi-0.dtd"
   xmlns:inkscape="http://www.inkscape.org/namespaces/inkscape"
   id="svg3039"
   version="1.1"
   inkscape:version="0.48.4 r9939"
   width="450"
   height="720"
   xml:space="preserve"
   sodipodi:docname="figure7-eps-converted-to.pdf"><metadata
     id="metadata3045"><rdf:RDF><cc:Work
         rdf:about=""><dc:format>image/svg+xml</dc:format><dc:type
           rdf:resource="http://purl.org/dc/dcmitype/StillImage" /><dc:title></dc:title></cc:Work></rdf:RDF></metadata><defs
     id="defs3043"><clipPath
       clipPathUnits="userSpaceOnUse"
       id="clipPath3055"><path
         d="m 0,3840 3600,0 0,1920 -3600,0 0,-1920 z"
         id="path3057" /></clipPath><clipPath
       clipPathUnits="userSpaceOnUse"
       id="clipPath3157"><path
         d="m 380.199,4220.2 3124.8,0 0,1444.8 -3124.8,0 0,-1444.8 z"
         id="path3159" /></clipPath><clipPath
       clipPathUnits="userSpaceOnUse"
       id="clipPath3181"><path
         d="m 0,1920 3600,0 0,1920 -3600,0 0,-1920 z"
         id="path3183" /></clipPath><clipPath
       clipPathUnits="userSpaceOnUse"
       id="clipPath3283"><path
         d="m 0,0 3600,0 0,1920 L 0,1920 0,0 z"
         id="path3285" /></clipPath></defs><sodipodi:namedview
     pagecolor="#ffffff"
     bordercolor="#666666"
     borderopacity="1"
     objecttolerance="10"
     gridtolerance="10"
     guidetolerance="10"
     inkscape:pageopacity="0"
     inkscape:pageshadow="2"
     inkscape:window-width="1920"
     inkscape:window-height="1031"
     id="namedview3041"
     showgrid="false"
     inkscape:zoom="2.6666667"
     inkscape:cx="159.96753"
     inkscape:cy="610.21081"
     inkscape:window-x="0"
     inkscape:window-y="25"
     inkscape:window-maximized="1"
     inkscape:current-layer="g3047" /><g
     id="g3047"
     inkscape:groupmode="layer"
     inkscape:label="figure7-eps-converted-to"
     transform="matrix(1.25,0,0,-1.25,0,720)"><g
       id="g3051"
       transform="scale(0.1,0.1)"><g
         clip-path="url(#clipPath3055)"
         id="g3053"><path
           inkscape:connector-curvature="0"
           id="path3059"
           style="fill:#ffffff;fill-opacity:1;fill-rule:nonzero;stroke:none"
           d="m 495.898,4220.2 170.203,0 0,586.801 -170.203,0 0,-586.801 z" /><path
           inkscape:connector-curvature="0"
           id="path3061"
           style="fill:none;stroke:#000000;stroke-width:7.5;stroke-linecap:round;stroke-linejoin:round;stroke-miterlimit:10;stroke-opacity:1;stroke-dasharray:none"
           d="m 495.898,4220.2 170.203,0 0,586.801 -170.203,0 0,-586.801 z" /><path
           inkscape:connector-curvature="0"
           id="path3063"
           style="fill:#bebebe;fill-opacity:1;fill-rule:nonzero;stroke:none"
           d="m 666.102,4220.2 170.199,0 0,1337.3 -170.199,0 0,-1337.3 z" /><path
           inkscape:connector-curvature="0"
           id="path3065"
           style="fill:none;stroke:#000000;stroke-width:7.5;stroke-linecap:round;stroke-linejoin:round;stroke-miterlimit:10;stroke-opacity:1;stroke-dasharray:none"
           d="m 666.102,4220.2 170.199,0 0,1337.3 -170.199,0 0,-1337.3 z" /><path
           inkscape:connector-curvature="0"
           id="path3067"
           style="fill:#ffffff;fill-opacity:1;fill-rule:nonzero;stroke:none"
           d="m 1006.5,4220.2 170.199,0 0,653.699 -170.199,0 0,-653.699 z" /><path
           inkscape:connector-curvature="0"
           id="path3069"
           style="fill:none;stroke:#000000;stroke-width:7.5;stroke-linecap:round;stroke-linejoin:round;stroke-miterlimit:10;stroke-opacity:1;stroke-dasharray:none"
           d="m 1006.5,4220.2 170.199,0 0,653.699 -170.199,0 0,-653.699 z" /><path
           inkscape:connector-curvature="0"
           id="path3071"
           style="fill:#bebebe;fill-opacity:1;fill-rule:nonzero;stroke:none"
           d="m 1176.7,4220.2 170.199,0 0,1033.8 -170.199,0 0,-1033.8 z" /><path
           inkscape:connector-curvature="0"
           id="path3073"
           style="fill:none;stroke:#000000;stroke-width:7.5;stroke-linecap:round;stroke-linejoin:round;stroke-miterlimit:10;stroke-opacity:1;stroke-dasharray:none"
           d="m 1176.7,4220.2 170.199,0 0,1033.8 -170.199,0 0,-1033.8 z" /><path
           inkscape:connector-curvature="0"
           id="path3075"
           style="fill:#ffffff;fill-opacity:1;fill-rule:nonzero;stroke:none"
           d="m 1517.1,4220.2 170.199,0 0,862.902 -170.199,0 0,-862.902 z" /><path
           inkscape:connector-curvature="0"
           id="path3077"
           style="fill:none;stroke:#000000;stroke-width:7.5;stroke-linecap:round;stroke-linejoin:round;stroke-miterlimit:10;stroke-opacity:1;stroke-dasharray:none"
           d="m 1517.1,4220.2 170.199,0 0,862.902 -170.199,0 0,-862.902 z" /><path
           inkscape:connector-curvature="0"
           id="path3079"
           style="fill:#bebebe;fill-opacity:1;fill-rule:nonzero;stroke:none"
           d="m 1687.3,4220.2 170.199,0 0,361.199 -170.199,0 0,-361.199 z" /><path
           inkscape:connector-curvature="0"
           id="path3081"
           style="fill:none;stroke:#000000;stroke-width:7.5;stroke-linecap:round;stroke-linejoin:round;stroke-miterlimit:10;stroke-opacity:1;stroke-dasharray:none"
           d="m 1687.3,4220.2 170.199,0 0,361.199 -170.199,0 0,-361.199 z" /><path
           inkscape:connector-curvature="0"
           id="path3083"
           style="fill:#ffffff;fill-opacity:1;fill-rule:nonzero;stroke:none"
           d="m 2027.7,4220.2 170.199,0 0,941.102 -170.199,0 0,-941.102 z" /><path
           inkscape:connector-curvature="0"
           id="path3085"
           style="fill:none;stroke:#000000;stroke-width:7.5;stroke-linecap:round;stroke-linejoin:round;stroke-miterlimit:10;stroke-opacity:1;stroke-dasharray:none"
           d="m 2027.7,4220.2 170.199,0 0,941.102 -170.199,0 0,-941.102 z" /><path
           inkscape:connector-curvature="0"
           id="path3087"
           style="fill:#bebebe;fill-opacity:1;fill-rule:nonzero;stroke:none"
           d="m 2197.9,4220.2 170.203,0 0,307.402 -170.203,0 0,-307.402 z" /><path
           inkscape:connector-curvature="0"
           id="path3089"
           style="fill:none;stroke:#000000;stroke-width:7.5;stroke-linecap:round;stroke-linejoin:round;stroke-miterlimit:10;stroke-opacity:1;stroke-dasharray:none"
           d="m 2197.9,4220.2 170.203,0 0,307.402 -170.203,0 0,-307.402 z" /><path
           inkscape:connector-curvature="0"
           id="path3091"
           style="fill:#ffffff;fill-opacity:1;fill-rule:nonzero;stroke:none"
           d="m 2538.2,4220.2 170.199,0 0,933.402 -170.199,0 0,-933.402 z" /><path
           inkscape:connector-curvature="0"
           id="path3093"
           style="fill:none;stroke:#000000;stroke-width:7.5;stroke-linecap:round;stroke-linejoin:round;stroke-miterlimit:10;stroke-opacity:1;stroke-dasharray:none"
           d="m 2538.2,4220.2 170.199,0 0,933.402 -170.199,0 0,-933.402 z" /><path
           inkscape:connector-curvature="0"
           id="path3095"
           style="fill:#bebebe;fill-opacity:1;fill-rule:nonzero;stroke:none"
           d="m 2708.4,4220.2 170.203,0 0,734.199 -170.203,0 0,-734.199 z" /><path
           inkscape:connector-curvature="0"
           id="path3097"
           style="fill:none;stroke:#000000;stroke-width:7.5;stroke-linecap:round;stroke-linejoin:round;stroke-miterlimit:10;stroke-opacity:1;stroke-dasharray:none"
           d="m 2708.4,4220.2 170.203,0 0,734.199 -170.203,0 0,-734.199 z" /><path
           inkscape:connector-curvature="0"
           id="path3099"
           style="fill:#ffffff;fill-opacity:1;fill-rule:nonzero;stroke:none"
           d="m 3048.8,4220.2 170.199,0 0,868.801 -170.199,0 0,-868.801 z" /><path
           inkscape:connector-curvature="0"
           id="path3101"
           style="fill:none;stroke:#000000;stroke-width:7.5;stroke-linecap:round;stroke-linejoin:round;stroke-miterlimit:10;stroke-opacity:1;stroke-dasharray:none"
           d="m 3048.8,4220.2 170.199,0 0,868.801 -170.199,0 0,-868.801 z" /><path
           inkscape:connector-curvature="0"
           id="path3103"
           style="fill:#bebebe;fill-opacity:1;fill-rule:nonzero;stroke:none"
           d="m 3219,4220.2 170.199,0 0,616 -170.199,0 0,-616 z" /><path
           inkscape:connector-curvature="0"
           id="path3105"
           style="fill:none;stroke:#000000;stroke-width:7.5;stroke-linecap:round;stroke-linejoin:round;stroke-miterlimit:10;stroke-opacity:1;stroke-dasharray:none"
           d="m 3219,4220.2 170.199,0 0,616 -170.199,0 0,-616 z" /></g></g><path
       inkscape:connector-curvature="0"
       id="path3107"
       style="fill:none;stroke:#000000;stroke-width:0.75;stroke-linecap:round;stroke-linejoin:round;stroke-miterlimit:10;stroke-opacity:1;stroke-dasharray:none"
       d="m 49.5898,417.26 136.1602,0" /><path
       inkscape:connector-curvature="0"
       id="path3109"
       style="fill:none;stroke:#000000;stroke-width:0.75;stroke-linecap:round;stroke-linejoin:round;stroke-miterlimit:10;stroke-opacity:1;stroke-dasharray:none"
       d="m 49.5898,417.26 0,-4.75" /><path
       inkscape:connector-curvature="0"
       id="path3111"
       style="fill:none;stroke:#000000;stroke-width:0.75;stroke-linecap:round;stroke-linejoin:round;stroke-miterlimit:10;stroke-opacity:1;stroke-dasharray:none"
       d="m 185.75,417.26 0,-4.75" /><path
       inkscape:connector-curvature="0"
       id="path3113"
       style="fill:none;stroke:#000000;stroke-width:0.75;stroke-linecap:round;stroke-linejoin:round;stroke-miterlimit:10;stroke-opacity:1;stroke-dasharray:none"
       d="m 202.77,417.26 34.04,0" /><path
       inkscape:connector-curvature="0"
       id="path3115"
       style="fill:none;stroke:#000000;stroke-width:0.75;stroke-linecap:round;stroke-linejoin:round;stroke-miterlimit:10;stroke-opacity:1;stroke-dasharray:none"
       d="m 202.77,417.26 0,-4.75" /><path
       inkscape:connector-curvature="0"
       id="path3117"
       style="fill:none;stroke:#000000;stroke-width:0.75;stroke-linecap:round;stroke-linejoin:round;stroke-miterlimit:10;stroke-opacity:1;stroke-dasharray:none"
       d="m 236.81,417.26 0,-4.75" /><path
       inkscape:connector-curvature="0"
       id="path3119"
       style="fill:none;stroke:#000000;stroke-width:0.75;stroke-linecap:round;stroke-linejoin:round;stroke-miterlimit:10;stroke-opacity:1;stroke-dasharray:none"
       d="m 253.82,417.26 85.1,0" /><path
       inkscape:connector-curvature="0"
       id="path3121"
       style="fill:none;stroke:#000000;stroke-width:0.75;stroke-linecap:round;stroke-linejoin:round;stroke-miterlimit:10;stroke-opacity:1;stroke-dasharray:none"
       d="m 253.82,417.26 0,-4.75" /><path
       inkscape:connector-curvature="0"
       id="path3123"
       style="fill:none;stroke:#000000;stroke-width:0.75;stroke-linecap:round;stroke-linejoin:round;stroke-miterlimit:10;stroke-opacity:1;stroke-dasharray:none"
       d="m 338.92,417.26 0,-4.75" /><text
       transform="scale(1,-1)"
       id="text3131"
       x="100.6926"
       y="-393.03"><tspan
         style="font-size:13px;font-variant:normal;font-weight:normal;writing-mode:lr-tb;fill:#000000;fill-opacity:1;fill-rule:nonzero;stroke:none;font-family:Helvetica;-inkscape-font-specification:Helvetica"
         x="100.6926 110.0786 112.9646 120.1926 127.4206 198.1133 205.34129 214.0123 222.6833 231.35429 259.15897 267.82996 277.94397 286.61496 290.22897 297.45697 306.12796 314.79895 323.46997"
         y="-393.03"
         sodipodi:role="line"
         id="tspan3133">RidgeLASSOSOS LASSO</tspan></text>
<text
       transform="matrix(0,1,1,0,0,0)"
       id="text3135"
       x="470.42499"
       y="17.110201"><tspan
         style="font-size:13px;font-variant:normal;font-weight:normal;writing-mode:lr-tb;fill:#000000;fill-opacity:1;fill-rule:nonzero;stroke:none;font-family:Helvetica;-inkscape-font-specification:Helvetica"
         x="470.42499 479.09601 481.98199 484.86801 488.48199 497.86801 505.09601 507.98199 511.59601"
         y="17.110201"
         sodipodi:role="line"
         id="tspan3137">All Units</tspan></text>
<path
       inkscape:connector-curvature="0"
       id="path3139"
       style="fill:none;stroke:#000000;stroke-width:0.75;stroke-linecap:round;stroke-linejoin:round;stroke-miterlimit:10;stroke-opacity:1;stroke-dasharray:none"
       d="m 38.0199,422.02 0,144.48" /><path
       inkscape:connector-curvature="0"
       id="path3141"
       style="fill:none;stroke:#000000;stroke-width:0.75;stroke-linecap:round;stroke-linejoin:round;stroke-miterlimit:10;stroke-opacity:1;stroke-dasharray:none"
       d="m 38.0199,422.02 -4.7597,0" /><path
       inkscape:connector-curvature="0"
       id="path3143"
       style="fill:none;stroke:#000000;stroke-width:0.75;stroke-linecap:round;stroke-linejoin:round;stroke-miterlimit:10;stroke-opacity:1;stroke-dasharray:none"
       d="m 38.0199,494.26 -4.7597,0" /><path
       inkscape:connector-curvature="0"
       id="path3145"
       style="fill:none;stroke:#000000;stroke-width:0.75;stroke-linecap:round;stroke-linejoin:round;stroke-miterlimit:10;stroke-opacity:1;stroke-dasharray:none"
       d="m 38.0199,566.5 -4.7597,0" /><g
       id="g3147"><text
         id="text3149"
         transform="matrix(0,1,1,0,26.6102,415.07)"><tspan
           id="tspan3151"
           sodipodi:role="line"
           y="0"
           x="0 5.5599999 8.3400002 72.240196 77.800201 80.5802 144.48 150.03999 152.82001"
           style="font-size:10px;font-variant:normal;font-weight:normal;writing-mode:lr-tb;fill:#000000;fill-opacity:1;fill-rule:nonzero;stroke:none;font-family:Helvetica;-inkscape-font-specification:Helvetica">0.00.51.0</tspan></text>
</g><g
       id="g3153"
       transform="scale(0.1,0.1)"><g
         clip-path="url(#clipPath3157)"
         id="g3155"><path
           inkscape:connector-curvature="0"
           id="path3161"
           style="fill:#ffffff;fill-opacity:1;fill-rule:nonzero;stroke:none"
           d="m 2765.6,5486.7 85.5,0 0,71.3008 -85.5,0 0,-71.3008 z" /><path
           inkscape:connector-curvature="0"
           id="path3163"
           style="fill:none;stroke:#000000;stroke-width:7.5;stroke-linecap:round;stroke-linejoin:round;stroke-miterlimit:10;stroke-opacity:1;stroke-dasharray:none"
           d="m 2765.6,5486.7 85.5,0 0,71.3008 -85.5,0 0,-71.3008 z" /><path
           inkscape:connector-curvature="0"
           id="path3165"
           style="fill:#bebebe;fill-opacity:1;fill-rule:nonzero;stroke:none"
           d="m 2765.6,5344.2 85.5,0 0,71.3008 -85.5,0 0,-71.3008 z" /><path
           inkscape:connector-curvature="0"
           id="path3167"
           style="fill:none;stroke:#000000;stroke-width:7.5;stroke-linecap:round;stroke-linejoin:round;stroke-miterlimit:10;stroke-opacity:1;stroke-dasharray:none"
           d="m 2765.6,5344.2 85.5,0 0,71.3008 -85.5,0 0,-71.3008 z" /><g
           transform="scale(10,10)"
           id="g3169"><text
             id="text3171"
             transform="matrix(1,0,0,-1,295.81,547.93)"><tspan
               id="tspan3173"
               sodipodi:role="line"
               y="0"
               x="0 8.0039997 12 18.672001 24.672001 27.336 33.335999 36 42.672001"
               style="font-size:12px;font-variant:normal;font-weight:normal;writing-mode:lr-tb;fill:#000000;fill-opacity:1;fill-rule:nonzero;stroke:none;font-family:Helvetica;-inkscape-font-specification:Helvetica">Precision</tspan><tspan
               id="tspan3175"
               sodipodi:role="line"
               y="14.25"
               x="0 8.6639996 11.328 14.664 18 26.664 33.335999 36.672001"
               style="font-size:12px;font-variant:normal;font-weight:normal;writing-mode:lr-tb;fill:#000000;fill-opacity:1;fill-rule:nonzero;stroke:none;font-family:Helvetica;-inkscape-font-specification:Helvetica">Hit Rate</tspan></text>
</g></g></g><g
       id="g3177"
       transform="scale(0.1,0.1)"><g
         clip-path="url(#clipPath3181)"
         id="g3179"><path
           inkscape:connector-curvature="0"
           id="path3185"
           style="fill:#ffffff;fill-opacity:1;fill-rule:nonzero;stroke:none"
           d="m 495.898,2300.2 170.203,0 0,741 -170.203,0 0,-741 z" /><path
           inkscape:connector-curvature="0"
           id="path3187"
           style="fill:none;stroke:#000000;stroke-width:7.5;stroke-linecap:round;stroke-linejoin:round;stroke-miterlimit:10;stroke-opacity:1;stroke-dasharray:none"
           d="m 495.898,2300.2 170.203,0 0,741 -170.203,0 0,-741 z" /><path
           inkscape:connector-curvature="0"
           id="path3189"
           style="fill:#bebebe;fill-opacity:1;fill-rule:nonzero;stroke:none"
           d="m 666.102,2300.2 170.199,0 0,1332.4 -170.199,0 0,-1332.4 z" /><path
           inkscape:connector-curvature="0"
           id="path3191"
           style="fill:none;stroke:#000000;stroke-width:7.5;stroke-linecap:round;stroke-linejoin:round;stroke-miterlimit:10;stroke-opacity:1;stroke-dasharray:none"
           d="m 666.102,2300.2 170.199,0 0,1332.4 -170.199,0 0,-1332.4 z" /><path
           inkscape:connector-curvature="0"
           id="path3193"
           style="fill:#ffffff;fill-opacity:1;fill-rule:nonzero;stroke:none"
           d="m 1006.5,2300.2 170.199,0 0,793.301 -170.199,0 0,-793.301 z" /><path
           inkscape:connector-curvature="0"
           id="path3195"
           style="fill:none;stroke:#000000;stroke-width:7.5;stroke-linecap:round;stroke-linejoin:round;stroke-miterlimit:10;stroke-opacity:1;stroke-dasharray:none"
           d="m 1006.5,2300.2 170.199,0 0,793.301 -170.199,0 0,-793.301 z" /><path
           inkscape:connector-curvature="0"
           id="path3197"
           style="fill:#bebebe;fill-opacity:1;fill-rule:nonzero;stroke:none"
           d="m 1176.7,2300.2 170.199,0 0,1010 -170.199,0 0,-1010 z" /><path
           inkscape:connector-curvature="0"
           id="path3199"
           style="fill:none;stroke:#000000;stroke-width:7.5;stroke-linecap:round;stroke-linejoin:round;stroke-miterlimit:10;stroke-opacity:1;stroke-dasharray:none"
           d="m 1176.7,2300.2 170.199,0 0,1010 -170.199,0 0,-1010 z" /><path
           inkscape:connector-curvature="0"
           id="path3201"
           style="fill:#ffffff;fill-opacity:1;fill-rule:nonzero;stroke:none"
           d="m 1517.1,2300.2 170.199,0 0,980.902 -170.199,0 0,-980.902 z" /><path
           inkscape:connector-curvature="0"
           id="path3203"
           style="fill:none;stroke:#000000;stroke-width:7.5;stroke-linecap:round;stroke-linejoin:round;stroke-miterlimit:10;stroke-opacity:1;stroke-dasharray:none"
           d="m 1517.1,2300.2 170.199,0 0,980.902 -170.199,0 0,-980.902 z" /><path
           inkscape:connector-curvature="0"
           id="path3205"
           style="fill:#bebebe;fill-opacity:1;fill-rule:nonzero;stroke:none"
           d="m 1687.3,2300.2 170.199,0 0,346.5 -170.199,0 0,-346.5 z" /><path
           inkscape:connector-curvature="0"
           id="path3207"
           style="fill:none;stroke:#000000;stroke-width:7.5;stroke-linecap:round;stroke-linejoin:round;stroke-miterlimit:10;stroke-opacity:1;stroke-dasharray:none"
           d="m 1687.3,2300.2 170.199,0 0,346.5 -170.199,0 0,-346.5 z" /><path
           inkscape:connector-curvature="0"
           id="path3209"
           style="fill:#ffffff;fill-opacity:1;fill-rule:nonzero;stroke:none"
           d="m 2027.7,2300.2 170.199,0 0,1034 -170.199,0 0,-1034 z" /><path
           inkscape:connector-curvature="0"
           id="path3211"
           style="fill:none;stroke:#000000;stroke-width:7.5;stroke-linecap:round;stroke-linejoin:round;stroke-miterlimit:10;stroke-opacity:1;stroke-dasharray:none"
           d="m 2027.7,2300.2 170.199,0 0,1034 -170.199,0 0,-1034 z" /><path
           inkscape:connector-curvature="0"
           id="path3213"
           style="fill:#bebebe;fill-opacity:1;fill-rule:nonzero;stroke:none"
           d="m 2197.9,2300.2 170.203,0 0,256.902 -170.203,0 0,-256.902 z" /><path
           inkscape:connector-curvature="0"
           id="path3215"
           style="fill:none;stroke:#000000;stroke-width:7.5;stroke-linecap:round;stroke-linejoin:round;stroke-miterlimit:10;stroke-opacity:1;stroke-dasharray:none"
           d="m 2197.9,2300.2 170.203,0 0,256.902 -170.203,0 0,-256.902 z" /><path
           inkscape:connector-curvature="0"
           id="path3217"
           style="fill:#ffffff;fill-opacity:1;fill-rule:nonzero;stroke:none"
           d="m 2538.2,2300.2 170.199,0 0,1022 -170.199,0 0,-1022 z" /><path
           inkscape:connector-curvature="0"
           id="path3219"
           style="fill:none;stroke:#000000;stroke-width:7.5;stroke-linecap:round;stroke-linejoin:round;stroke-miterlimit:10;stroke-opacity:1;stroke-dasharray:none"
           d="m 2538.2,2300.2 170.199,0 0,1022 -170.199,0 0,-1022 z" /><path
           inkscape:connector-curvature="0"
           id="path3221"
           style="fill:#bebebe;fill-opacity:1;fill-rule:nonzero;stroke:none"
           d="m 2708.4,2300.2 170.203,0 0,695.602 -170.203,0 0,-695.602 z" /><path
           inkscape:connector-curvature="0"
           id="path3223"
           style="fill:none;stroke:#000000;stroke-width:7.5;stroke-linecap:round;stroke-linejoin:round;stroke-miterlimit:10;stroke-opacity:1;stroke-dasharray:none"
           d="m 2708.4,2300.2 170.203,0 0,695.602 -170.203,0 0,-695.602 z" /><path
           inkscape:connector-curvature="0"
           id="path3225"
           style="fill:#ffffff;fill-opacity:1;fill-rule:nonzero;stroke:none"
           d="m 3048.8,2300.2 170.199,0 0,1132.8 -170.199,0 0,-1132.8 z" /><path
           inkscape:connector-curvature="0"
           id="path3227"
           style="fill:none;stroke:#000000;stroke-width:7.5;stroke-linecap:round;stroke-linejoin:round;stroke-miterlimit:10;stroke-opacity:1;stroke-dasharray:none"
           d="m 3048.8,2300.2 170.199,0 0,1132.8 -170.199,0 0,-1132.8 z" /><path
           inkscape:connector-curvature="0"
           id="path3229"
           style="fill:#bebebe;fill-opacity:1;fill-rule:nonzero;stroke:none"
           d="m 3219,2300.2 170.199,0 0,563.199 -170.199,0 0,-563.199 z" /><path
           inkscape:connector-curvature="0"
           id="path3231"
           style="fill:none;stroke:#000000;stroke-width:7.5;stroke-linecap:round;stroke-linejoin:round;stroke-miterlimit:10;stroke-opacity:1;stroke-dasharray:none"
           d="m 3219,2300.2 170.199,0 0,563.199 -170.199,0 0,-563.199 z" /></g></g><path
       inkscape:connector-curvature="0"
       id="path3233"
       style="fill:none;stroke:#000000;stroke-width:0.75;stroke-linecap:round;stroke-linejoin:round;stroke-miterlimit:10;stroke-opacity:1;stroke-dasharray:none"
       d="m 49.5898,225.26 136.1602,0" /><path
       inkscape:connector-curvature="0"
       id="path3235"
       style="fill:none;stroke:#000000;stroke-width:0.75;stroke-linecap:round;stroke-linejoin:round;stroke-miterlimit:10;stroke-opacity:1;stroke-dasharray:none"
       d="m 49.5898,225.26 0,-4.75" /><path
       inkscape:connector-curvature="0"
       id="path3237"
       style="fill:none;stroke:#000000;stroke-width:0.75;stroke-linecap:round;stroke-linejoin:round;stroke-miterlimit:10;stroke-opacity:1;stroke-dasharray:none"
       d="m 185.75,225.26 0,-4.75" /><path
       inkscape:connector-curvature="0"
       id="path3239"
       style="fill:none;stroke:#000000;stroke-width:0.75;stroke-linecap:round;stroke-linejoin:round;stroke-miterlimit:10;stroke-opacity:1;stroke-dasharray:none"
       d="m 202.77,225.26 34.04,0" /><path
       inkscape:connector-curvature="0"
       id="path3241"
       style="fill:none;stroke:#000000;stroke-width:0.75;stroke-linecap:round;stroke-linejoin:round;stroke-miterlimit:10;stroke-opacity:1;stroke-dasharray:none"
       d="m 202.77,225.26 0,-4.75" /><path
       inkscape:connector-curvature="0"
       id="path3243"
       style="fill:none;stroke:#000000;stroke-width:0.75;stroke-linecap:round;stroke-linejoin:round;stroke-miterlimit:10;stroke-opacity:1;stroke-dasharray:none"
       d="m 236.81,225.26 0,-4.75" /><path
       inkscape:connector-curvature="0"
       id="path3245"
       style="fill:none;stroke:#000000;stroke-width:0.75;stroke-linecap:round;stroke-linejoin:round;stroke-miterlimit:10;stroke-opacity:1;stroke-dasharray:none"
       d="m 253.82,225.26 85.1,0" /><path
       inkscape:connector-curvature="0"
       id="path3247"
       style="fill:none;stroke:#000000;stroke-width:0.75;stroke-linecap:round;stroke-linejoin:round;stroke-miterlimit:10;stroke-opacity:1;stroke-dasharray:none"
       d="m 253.82,225.26 0,-4.75" /><path
       inkscape:connector-curvature="0"
       id="path3249"
       style="fill:none;stroke:#000000;stroke-width:0.75;stroke-linecap:round;stroke-linejoin:round;stroke-miterlimit:10;stroke-opacity:1;stroke-dasharray:none"
       d="m 338.92,225.26 0,-4.75" /><text
       transform="scale(1,-1)"
       id="text3257"
       x="100.6926"
       y="-201.03"><tspan
         style="font-size:13px;font-variant:normal;font-weight:normal;writing-mode:lr-tb;fill:#000000;fill-opacity:1;fill-rule:nonzero;stroke:none;font-family:Helvetica;-inkscape-font-specification:Helvetica"
         x="100.6926 110.0786 112.9646 120.1926 127.4206 198.1133 205.34129 214.0123 222.6833 231.35429 259.15897 267.82996 277.94397 286.61496 290.22897 297.45697 306.12796 314.79895 323.46997"
         y="-201.03"
         sodipodi:role="line"
         id="tspan3259">RidgeLASSOSOS LASSO</tspan></text>
<text
       transform="matrix(0,1,1,0,0,0)"
       id="text3261"
       x="271.19101"
       y="17.110201"><tspan
         style="font-size:13px;font-variant:normal;font-weight:normal;writing-mode:lr-tb;fill:#000000;fill-opacity:1;fill-rule:nonzero;stroke:none;font-family:Helvetica;-inkscape-font-specification:Helvetica"
         x="271.19101 274.80499 282.03299 289.26099 296.48901 300.103 303.71701 313.103 320.33099 323.21701 326.83099"
         y="17.110201"
         sodipodi:role="line"
         id="tspan3263">Input Units</tspan></text>
<path
       inkscape:connector-curvature="0"
       id="path3265"
       style="fill:none;stroke:#000000;stroke-width:0.75;stroke-linecap:round;stroke-linejoin:round;stroke-miterlimit:10;stroke-opacity:1;stroke-dasharray:none"
       d="m 38.0199,230.02 0,144.48" /><path
       inkscape:connector-curvature="0"
       id="path3267"
       style="fill:none;stroke:#000000;stroke-width:0.75;stroke-linecap:round;stroke-linejoin:round;stroke-miterlimit:10;stroke-opacity:1;stroke-dasharray:none"
       d="m 38.0199,230.02 -4.7597,0" /><path
       inkscape:connector-curvature="0"
       id="path3269"
       style="fill:none;stroke:#000000;stroke-width:0.75;stroke-linecap:round;stroke-linejoin:round;stroke-miterlimit:10;stroke-opacity:1;stroke-dasharray:none"
       d="m 38.0199,302.26 -4.7597,0" /><path
       inkscape:connector-curvature="0"
       id="path3271"
       style="fill:none;stroke:#000000;stroke-width:0.75;stroke-linecap:round;stroke-linejoin:round;stroke-miterlimit:10;stroke-opacity:1;stroke-dasharray:none"
       d="m 38.0199,374.5 -4.7597,0" /><g
       id="g3273"><text
         id="text3275"
         transform="matrix(0,1,1,0,26.6102,223.07)"><tspan
           id="tspan3277"
           sodipodi:role="line"
           y="0"
           x="0 5.5599999 8.3400002 72.240196 77.800201 80.5802 144.48 150.03999 152.82001"
           style="font-size:10px;font-variant:normal;font-weight:normal;writing-mode:lr-tb;fill:#000000;fill-opacity:1;fill-rule:nonzero;stroke:none;font-family:Helvetica;-inkscape-font-specification:Helvetica">0.00.51.0</tspan></text>
</g><g
       id="g3281"
       clip-path="url(#clipPath3283)"
       transform="scale(0.1,0.1)"><path
         d="m 495.898,380.199 170.203,0 0,298 -170.203,0 0,-298 z"
         style="fill:#ffffff;fill-opacity:1;fill-rule:nonzero;stroke:none"
         id="path3287"
         inkscape:connector-curvature="0" /><path
         d="m 495.898,380.199 170.203,0 0,298 -170.203,0 0,-298 z"
         style="fill:none;stroke:#000000;stroke-width:7.5;stroke-linecap:round;stroke-linejoin:round;stroke-miterlimit:10;stroke-opacity:1;stroke-dasharray:none"
         id="path3289"
         inkscape:connector-curvature="0" /><path
         d="m 666.102,380.199 170.199,0 0,1407 -170.199,0 0,-1407 z"
         style="fill:#bebebe;fill-opacity:1;fill-rule:nonzero;stroke:none"
         id="path3291"
         inkscape:connector-curvature="0" /><path
         d="m 666.102,380.199 170.199,0 0,1407 -170.199,0 0,-1407 z"
         style="fill:none;stroke:#000000;stroke-width:7.5;stroke-linecap:round;stroke-linejoin:round;stroke-miterlimit:10;stroke-opacity:1;stroke-dasharray:none"
         id="path3293"
         inkscape:connector-curvature="0" /><path
         d="m 1006.5,380.199 170.199,0 0,382.102 -170.199,0 0,-382.102 z"
         style="fill:#ffffff;fill-opacity:1;fill-rule:nonzero;stroke:none"
         id="path3295"
         inkscape:connector-curvature="0" /><path
         d="m 1006.5,380.199 170.199,0 0,382.102 -170.199,0 0,-382.102 z"
         style="fill:none;stroke:#000000;stroke-width:7.5;stroke-linecap:round;stroke-linejoin:round;stroke-miterlimit:10;stroke-opacity:1;stroke-dasharray:none"
         id="path3297"
         inkscape:connector-curvature="0" /><path
         d="m 1176.7,380.199 170.199,0 0,1235 -170.199,0 0,-1235 z"
         style="fill:#bebebe;fill-opacity:1;fill-rule:nonzero;stroke:none"
         id="path3299"
         inkscape:connector-curvature="0" /><path
         d="m 1176.7,380.199 170.199,0 0,1235 -170.199,0 0,-1235 z"
         style="fill:none;stroke:#000000;stroke-width:7.5;stroke-linecap:round;stroke-linejoin:round;stroke-miterlimit:10;stroke-opacity:1;stroke-dasharray:none"
         id="path3301"
         inkscape:connector-curvature="0" /><path
         d="m 1517.1,380.199 170.199,0 0,678 -170.199,0 0,-678 z"
         style="fill:#ffffff;fill-opacity:1;fill-rule:nonzero;stroke:none"
         id="path3303"
         inkscape:connector-curvature="0" /><path
         d="m 1517.1,380.199 170.199,0 0,678 -170.199,0 0,-678 z"
         style="fill:none;stroke:#000000;stroke-width:7.5;stroke-linecap:round;stroke-linejoin:round;stroke-miterlimit:10;stroke-opacity:1;stroke-dasharray:none"
         id="path3305"
         inkscape:connector-curvature="0" /><path
         d="m 1687.3,380.199 170.199,0 0,615.801 -170.199,0 0,-615.801 z"
         style="fill:#bebebe;fill-opacity:1;fill-rule:nonzero;stroke:none"
         id="path3307"
         inkscape:connector-curvature="0" /><path
         d="m 1687.3,380.199 170.199,0 0,615.801 -170.199,0 0,-615.801 z"
         style="fill:none;stroke:#000000;stroke-width:7.5;stroke-linecap:round;stroke-linejoin:round;stroke-miterlimit:10;stroke-opacity:1;stroke-dasharray:none"
         id="path3309"
         inkscape:connector-curvature="0" /><path
         d="m 2027.7,380.199 170.199,0 0,836.402 -170.199,0 0,-836.402 z"
         style="fill:#ffffff;fill-opacity:1;fill-rule:nonzero;stroke:none"
         id="path3311"
         inkscape:connector-curvature="0" /><path
         d="m 2027.7,380.199 170.199,0 0,836.402 -170.199,0 0,-836.402 z"
         style="fill:none;stroke:#000000;stroke-width:7.5;stroke-linecap:round;stroke-linejoin:round;stroke-miterlimit:10;stroke-opacity:1;stroke-dasharray:none"
         id="path3313"
         inkscape:connector-curvature="0" /><path
         d="m 2197.9,380.199 170.203,0 0,560.699 -170.203,0 0,-560.699 z"
         style="fill:#bebebe;fill-opacity:1;fill-rule:nonzero;stroke:none"
         id="path3315"
         inkscape:connector-curvature="0" /><path
         d="m 2197.9,380.199 170.203,0 0,560.699 -170.203,0 0,-560.699 z"
         style="fill:none;stroke:#000000;stroke-width:7.5;stroke-linecap:round;stroke-linejoin:round;stroke-miterlimit:10;stroke-opacity:1;stroke-dasharray:none"
         id="path3317"
         inkscape:connector-curvature="0" /><path
         d="m 2538.2,380.199 170.199,0 0,786.902 -170.199,0 0,-786.902 z"
         style="fill:#ffffff;fill-opacity:1;fill-rule:nonzero;stroke:none"
         id="path3319"
         inkscape:connector-curvature="0" /><path
         d="m 2538.2,380.199 170.199,0 0,786.902 -170.199,0 0,-786.902 z"
         style="fill:none;stroke:#000000;stroke-width:7.5;stroke-linecap:round;stroke-linejoin:round;stroke-miterlimit:10;stroke-opacity:1;stroke-dasharray:none"
         id="path3321"
         inkscape:connector-curvature="0" /><path
         d="m 2708.4,380.199 170.203,0 0,1052.6 -170.203,0 0,-1052.6 z"
         style="fill:#bebebe;fill-opacity:1;fill-rule:nonzero;stroke:none"
         id="path3323"
         inkscape:connector-curvature="0" /><path
         d="m 2708.4,380.199 170.203,0 0,1052.6 -170.203,0 0,-1052.6 z"
         style="fill:none;stroke:#000000;stroke-width:7.5;stroke-linecap:round;stroke-linejoin:round;stroke-miterlimit:10;stroke-opacity:1;stroke-dasharray:none"
         id="path3325"
         inkscape:connector-curvature="0" /><path
         d="m 3048.8,380.199 170.199,0 0,506.301 -170.199,0 0,-506.301 z"
         style="fill:#ffffff;fill-opacity:1;fill-rule:nonzero;stroke:none"
         id="path3327"
         inkscape:connector-curvature="0" /><path
         d="m 3048.8,380.199 170.199,0 0,506.301 -170.199,0 0,-506.301 z"
         style="fill:none;stroke:#000000;stroke-width:7.5;stroke-linecap:round;stroke-linejoin:round;stroke-miterlimit:10;stroke-opacity:1;stroke-dasharray:none"
         id="path3329"
         inkscape:connector-curvature="0" /><path
         d="m 3219,380.199 170.199,0 0,846.199 -170.199,0 0,-846.199 z"
         style="fill:#bebebe;fill-opacity:1;fill-rule:nonzero;stroke:none"
         id="path3331"
         inkscape:connector-curvature="0" /><path
         d="m 3219,380.199 170.199,0 0,846.199 -170.199,0 0,-846.199 z"
         style="fill:none;stroke:#000000;stroke-width:7.5;stroke-linecap:round;stroke-linejoin:round;stroke-miterlimit:10;stroke-opacity:1;stroke-dasharray:none"
         id="path3333"
         inkscape:connector-curvature="0" /></g><path
       inkscape:connector-curvature="0"
       id="path3335"
       style="fill:none;stroke:#000000;stroke-width:0.75;stroke-linecap:round;stroke-linejoin:round;stroke-miterlimit:10;stroke-opacity:1;stroke-dasharray:none"
       d="m 49.5898,33.2602 136.1602,0" /><path
       inkscape:connector-curvature="0"
       id="path3337"
       style="fill:none;stroke:#000000;stroke-width:0.75;stroke-linecap:round;stroke-linejoin:round;stroke-miterlimit:10;stroke-opacity:1;stroke-dasharray:none"
       d="m 49.5898,33.2602 0,-4.75" /><path
       inkscape:connector-curvature="0"
       id="path3339"
       style="fill:none;stroke:#000000;stroke-width:0.75;stroke-linecap:round;stroke-linejoin:round;stroke-miterlimit:10;stroke-opacity:1;stroke-dasharray:none"
       d="m 185.75,33.2602 0,-4.75" /><path
       inkscape:connector-curvature="0"
       id="path3341"
       style="fill:none;stroke:#000000;stroke-width:0.75;stroke-linecap:round;stroke-linejoin:round;stroke-miterlimit:10;stroke-opacity:1;stroke-dasharray:none"
       d="m 202.77,33.2602 34.04,0" /><path
       inkscape:connector-curvature="0"
       id="path3343"
       style="fill:none;stroke:#000000;stroke-width:0.75;stroke-linecap:round;stroke-linejoin:round;stroke-miterlimit:10;stroke-opacity:1;stroke-dasharray:none"
       d="m 202.77,33.2602 0,-4.75" /><path
       inkscape:connector-curvature="0"
       id="path3345"
       style="fill:none;stroke:#000000;stroke-width:0.75;stroke-linecap:round;stroke-linejoin:round;stroke-miterlimit:10;stroke-opacity:1;stroke-dasharray:none"
       d="m 236.81,33.2602 0,-4.75" /><path
       inkscape:connector-curvature="0"
       id="path3347"
       style="fill:none;stroke:#000000;stroke-width:0.75;stroke-linecap:round;stroke-linejoin:round;stroke-miterlimit:10;stroke-opacity:1;stroke-dasharray:none"
       d="m 253.82,33.2602 85.1,0" /><path
       inkscape:connector-curvature="0"
       id="path3349"
       style="fill:none;stroke:#000000;stroke-width:0.75;stroke-linecap:round;stroke-linejoin:round;stroke-miterlimit:10;stroke-opacity:1;stroke-dasharray:none"
       d="m 253.82,33.2602 0,-4.75" /><path
       inkscape:connector-curvature="0"
       id="path3351"
       style="fill:none;stroke:#000000;stroke-width:0.75;stroke-linecap:round;stroke-linejoin:round;stroke-miterlimit:10;stroke-opacity:1;stroke-dasharray:none"
       d="m 338.92,33.2602 0,-4.75" /><text
       transform="scale(1,-1)"
       id="text3359"
       x="100.6926"
       y="-9.0300999"><tspan
         style="font-size:13px;font-variant:normal;font-weight:normal;writing-mode:lr-tb;fill:#000000;fill-opacity:1;fill-rule:nonzero;stroke:none;font-family:Helvetica;-inkscape-font-specification:Helvetica"
         x="100.6926 110.0786 112.9646 120.1926 127.4206 198.1133 205.34129 214.0123 222.6833 231.35429 259.15897 267.82996 277.94397 286.61496 290.22897 297.45697 306.12796 314.79895 323.46997"
         y="-9.0300999"
         sodipodi:role="line"
         id="tspan3361">RidgeLASSOSOS LASSO</tspan></text>
<text
       transform="matrix(0,1,1,0,0,0)"
       id="text3363"
       x="73.055496"
       y="17.110201"><tspan
         style="font-size:13px;font-variant:normal;font-weight:normal;writing-mode:lr-tb;fill:#000000;fill-opacity:1;fill-rule:nonzero;stroke:none;font-family:Helvetica;-inkscape-font-specification:Helvetica"
         x="73.055496 82.441498 85.327499 92.555496 99.783501 107.0115 114.23949 117.8535 127.23949 134.4675 137.3535 140.9675"
         y="17.110201"
         sodipodi:role="line"
         id="tspan3365">Hidden Units</tspan></text>
<path
       inkscape:connector-curvature="0"
       id="path3367"
       style="fill:none;stroke:#000000;stroke-width:0.75;stroke-linecap:round;stroke-linejoin:round;stroke-miterlimit:10;stroke-opacity:1;stroke-dasharray:none"
       d="m 38.0199,38.0199 0,144.4801" /><path
       inkscape:connector-curvature="0"
       id="path3369"
       style="fill:none;stroke:#000000;stroke-width:0.75;stroke-linecap:round;stroke-linejoin:round;stroke-miterlimit:10;stroke-opacity:1;stroke-dasharray:none"
       d="m 38.0199,38.0199 -4.7597,0" /><path
       inkscape:connector-curvature="0"
       id="path3371"
       style="fill:none;stroke:#000000;stroke-width:0.75;stroke-linecap:round;stroke-linejoin:round;stroke-miterlimit:10;stroke-opacity:1;stroke-dasharray:none"
       d="m 38.0199,110.26 -4.7597,0" /><path
       inkscape:connector-curvature="0"
       id="path3373"
       style="fill:none;stroke:#000000;stroke-width:0.75;stroke-linecap:round;stroke-linejoin:round;stroke-miterlimit:10;stroke-opacity:1;stroke-dasharray:none"
       d="m 38.0199,182.5 -4.7597,0" /><g
       id="g3375"><text
         id="text3377"
         transform="matrix(0,1,1,0,26.6102,31.0703)"><tspan
           id="tspan3379"
           sodipodi:role="line"
           y="0"
           x="0 5.5599999 8.3400002 72.240196 77.800201 80.5802 144.48 150.03999 152.82001"
           style="font-size:10px;font-variant:normal;font-weight:normal;writing-mode:lr-tb;fill:#000000;fill-opacity:1;fill-rule:nonzero;stroke:none;font-family:Helvetica;-inkscape-font-specification:Helvetica">0.00.51.0</tspan></text>
</g><g
       id="g3730"><text
         transform="scale(1,-1)"
         sodipodi:linespacing="125%"
         id="text3544"
         y="-23.776934"
         x="55.678467"
         style="font-size:11.84126186px;font-style:normal;font-weight:normal;line-height:125%;letter-spacing:0px;word-spacing:0px;fill:#000000;fill-opacity:1;stroke:none;font-family:Sans"
         xml:space="preserve"><tspan
           y="-23.776934"
           x="55.678467"
           id="tspan3546"
           sodipodi:role="line">Lax</tspan></text>
<text
         xml:space="preserve"
         style="font-size:11.84126186px;font-style:normal;font-weight:normal;line-height:125%;letter-spacing:0px;word-spacing:0px;fill:#000000;fill-opacity:1;stroke:none;font-family:Sans"
         x="103.00093"
         y="-23.412676"
         id="text3567"
         sodipodi:linespacing="125%"
         transform="scale(1,-1)"><tspan
           sodipodi:role="line"
           id="tspan3569"
           x="103.00093"
           y="-23.412676">Mod.</tspan></text>
<text
         transform="scale(1,-1)"
         sodipodi:linespacing="125%"
         id="text3571"
         y="-23.776934"
         x="155.27847"
         style="font-size:11.84126186px;font-style:normal;font-weight:normal;line-height:125%;letter-spacing:0px;word-spacing:0px;fill:#000000;fill-opacity:1;stroke:none;font-family:Sans"
         xml:space="preserve"><tspan
           y="-23.776934"
           x="155.27847"
           id="tspan3573"
           sodipodi:role="line">Agg.</tspan></text>
<text
         xml:space="preserve"
         style="font-size:11.84126186px;font-style:normal;font-weight:normal;line-height:125%;letter-spacing:0px;word-spacing:0px;fill:#000000;fill-opacity:1;stroke:none;font-family:Sans"
         x="256.07846"
         y="-23.412676"
         id="text3575"
         sodipodi:linespacing="125%"
         transform="scale(1,-1)"><tspan
           sodipodi:role="line"
           id="tspan3577"
           x="256.07846"
           y="-23.412676">Local</tspan></text>
<text
         xml:space="preserve"
         style="font-size:11.84126186px;font-style:normal;font-weight:normal;line-height:125%;letter-spacing:0px;word-spacing:0px;fill:#000000;fill-opacity:1;stroke:none;font-family:Sans"
         x="307.97849"
         y="-23.412676"
         id="text3579"
         sodipodi:linespacing="125%"
         transform="scale(1,-1)"><tspan
           sodipodi:role="line"
           id="tspan3581"
           x="307.97849"
           y="-23.412676">Disp.</tspan></text>
</g><g
       id="g3708"><text
         xml:space="preserve"
         style="font-size:11.84126186px;font-style:normal;font-weight:normal;line-height:125%;letter-spacing:0px;word-spacing:0px;fill:#000000;fill-opacity:1;stroke:none;font-family:Sans"
         x="55.678467"
         y="-215.77693"
         id="text3622"
         sodipodi:linespacing="125%"
         transform="scale(1,-1)"><tspan
           sodipodi:role="line"
           id="tspan3624"
           x="55.678467"
           y="-215.77693">Lax</tspan></text>
<text
         transform="scale(1,-1)"
         sodipodi:linespacing="125%"
         id="text3626"
         y="-215.41267"
         x="103.00093"
         style="font-size:11.84126186px;font-style:normal;font-weight:normal;line-height:125%;letter-spacing:0px;word-spacing:0px;fill:#000000;fill-opacity:1;stroke:none;font-family:Sans"
         xml:space="preserve"><tspan
           y="-215.41267"
           x="103.00093"
           id="tspan3628"
           sodipodi:role="line">Mod.</tspan></text>
<text
         xml:space="preserve"
         style="font-size:11.84126186px;font-style:normal;font-weight:normal;line-height:125%;letter-spacing:0px;word-spacing:0px;fill:#000000;fill-opacity:1;stroke:none;font-family:Sans"
         x="155.27847"
         y="-215.77693"
         id="text3630"
         sodipodi:linespacing="125%"
         transform="scale(1,-1)"><tspan
           sodipodi:role="line"
           id="tspan3632"
           x="155.27847"
           y="-215.77693">Agg.</tspan></text>
<text
         transform="scale(1,-1)"
         sodipodi:linespacing="125%"
         id="text3634"
         y="-215.41267"
         x="256.07846"
         style="font-size:11.84126186px;font-style:normal;font-weight:normal;line-height:125%;letter-spacing:0px;word-spacing:0px;fill:#000000;fill-opacity:1;stroke:none;font-family:Sans"
         xml:space="preserve"><tspan
           y="-215.41267"
           x="256.07846"
           id="tspan3636"
           sodipodi:role="line">Local</tspan></text>
<text
         transform="scale(1,-1)"
         sodipodi:linespacing="125%"
         id="text3638"
         y="-215.41267"
         x="307.97849"
         style="font-size:11.84126186px;font-style:normal;font-weight:normal;line-height:125%;letter-spacing:0px;word-spacing:0px;fill:#000000;fill-opacity:1;stroke:none;font-family:Sans"
         xml:space="preserve"><tspan
           y="-215.41267"
           x="307.97849"
           id="tspan3640"
           sodipodi:role="line">Disp.</tspan></text>
</g><g
       id="g3654"
       transform="translate(0,384.48026)"><text
         transform="scale(1,-1)"
         sodipodi:linespacing="125%"
         id="text3656"
         y="-21.966846"
         x="55.678467"
         style="font-size:11.84126186px;font-style:normal;font-weight:normal;line-height:125%;letter-spacing:0px;word-spacing:0px;fill:#000000;fill-opacity:1;stroke:none;font-family:Sans"
         xml:space="preserve"><tspan
           y="-21.966846"
           x="55.678467"
           id="tspan3658"
           sodipodi:role="line">Lax</tspan></text>
<text
         xml:space="preserve"
         style="font-size:11.84126186px;font-style:normal;font-weight:normal;line-height:125%;letter-spacing:0px;word-spacing:0px;fill:#000000;fill-opacity:1;stroke:none;font-family:Sans"
         x="103.00093"
         y="-21.784719"
         id="text3660"
         sodipodi:linespacing="125%"
         transform="scale(1,-1)"><tspan
           sodipodi:role="line"
           id="tspan3662"
           x="103.00093"
           y="-21.784719">Mod.</tspan></text>
<text
         transform="scale(1,-1)"
         sodipodi:linespacing="125%"
         id="text3664"
         y="-23.114548"
         x="155.27847"
         style="font-size:11.84126186px;font-style:normal;font-weight:normal;line-height:125%;letter-spacing:0px;word-spacing:0px;fill:#000000;fill-opacity:1;stroke:none;font-family:Sans"
         xml:space="preserve"><tspan
           y="-23.114548"
           x="155.27847"
           id="tspan3666"
           sodipodi:role="line">Agg.</tspan></text>
<text
         xml:space="preserve"
         style="font-size:11.84126186px;font-style:normal;font-weight:normal;line-height:125%;letter-spacing:0px;word-spacing:0px;fill:#000000;fill-opacity:1;stroke:none;font-family:Sans"
         x="256.07846"
         y="-21.784719"
         id="text3668"
         sodipodi:linespacing="125%"
         transform="scale(1,-1)"><tspan
           sodipodi:role="line"
           id="tspan3670"
           x="256.07846"
           y="-21.784719">Local</tspan></text>
<text
         xml:space="preserve"
         style="font-size:11.84126186px;font-style:normal;font-weight:normal;line-height:125%;letter-spacing:0px;word-spacing:0px;fill:#000000;fill-opacity:1;stroke:none;font-family:Sans"
         x="307.97849"
         y="-22.932419"
         id="text3672"
         sodipodi:linespacing="125%"
         transform="scale(1,-1)"><tspan
           sodipodi:role="line"
           id="tspan3674"
           x="307.97849"
           y="-22.932419">Disp.</tspan></text>
</g></g></svg>