<?xml version="1.0" encoding="UTF-8" standalone="no"?>
<!-- Created with Inkscape (http://www.inkscape.org/) -->

<svg
   xmlns:dc="http://purl.org/dc/elements/1.1/"
   xmlns:cc="http://creativecommons.org/ns#"
   xmlns:rdf="http://www.w3.org/1999/02/22-rdf-syntax-ns#"
   xmlns:svg="http://www.w3.org/2000/svg"
   xmlns="http://www.w3.org/2000/svg"
   xmlns:sodipodi="http://sodipodi.sourceforge.net/DTD/sodipodi-0.dtd"
   xmlns:inkscape="http://www.inkscape.org/namespaces/inkscape"
   width="358.58215"
   height="268.16339"
   id="svg2"
   version="1.1"
   inkscape:version="0.48.4 r9939"
   sodipodi:docname="New document 1">
  <sodipodi:namedview
     id="base"
     pagecolor="#ffffff"
     bordercolor="#666666"
     borderopacity="1.0"
     inkscape:pageopacity="0.0"
     inkscape:pageshadow="2"
     inkscape:zoom="1.4"
     inkscape:cx="147.18563"
     inkscape:cy="220.92973"
     inkscape:document-units="px"
     inkscape:current-layer="layer1"
     showgrid="false"
     inkscape:window-width="1440"
     inkscape:window-height="838"
     inkscape:window-x="-8"
     inkscape:window-y="-8"
     inkscape:window-maximized="1"
     fit-margin-top="20"
     fit-margin-left="20"
     fit-margin-right="20"
     fit-margin-bottom="20" />
  <defs
     id="defs4" />
  <metadata
     id="metadata7">
    <rdf:RDF>
      <cc:Work
         rdf:about="">
        <dc:format>image/svg+xml</dc:format>
        <dc:type
           rdf:resource="http://purl.org/dc/dcmitype/StillImage" />
        <dc:title></dc:title>
      </cc:Work>
    </rdf:RDF>
  </metadata>
  <g
     id="layer1"
     inkscape:groupmode="layer"
     inkscape:label="Layer 1"
     transform="translate(-30.711395,-268.13961)">
    <rect
       rx="16.387217"
       y="327.72775"
       x="51.618576"
       height="39.285713"
       width="144.45181"
       id="rect5633"
       style="fill:#ff0000;fill-opacity:0.5098038;stroke:none" />
    <rect
       style="fill:#0000ff;fill-opacity:0.5098038;stroke:none"
       id="rect5635"
       width="144.45181"
       height="39.285713"
       x="51.618576"
       y="367.72775"
       rx="16.387217" />
    <text
       sodipodi:linespacing="125%"
       id="text3039"
       y="324.04221"
       x="87.88327"
       style="font-size:16px;font-style:normal;font-variant:normal;font-weight:normal;font-stretch:normal;text-align:end;line-height:125%;letter-spacing:0px;word-spacing:0px;writing-mode:lr-tb;text-anchor:end;fill:#000000;fill-opacity:1;stroke:none;font-family:Sans;-inkscape-font-specification:Sans"
       xml:space="preserve"><tspan
         y="324.04221"
         x="87.88327"
         id="tspan3041"
         sodipodi:role="line">voxel</tspan><tspan
         id="tspan3043"
         y="344.04221"
         x="87.88327"
         sodipodi:role="line">1</tspan><tspan
         id="tspan3045"
         y="364.04221"
         x="87.88327"
         sodipodi:role="line">2</tspan><tspan
         id="tspan3047"
         y="384.04221"
         x="87.88327"
         sodipodi:role="line">3</tspan><tspan
         id="tspan3061"
         y="404.04221"
         x="87.88327"
         sodipodi:role="line">4</tspan></text>
    <text
       sodipodi:linespacing="125%"
       id="text3065"
       y="323.78439"
       x="135.6489"
       style="font-size:16px;font-style:normal;font-variant:normal;font-weight:normal;font-stretch:normal;text-align:end;line-height:125%;letter-spacing:0px;word-spacing:0px;writing-mode:lr-tb;text-anchor:end;fill:#000000;fill-opacity:1;stroke:none;font-family:Sans;-inkscape-font-specification:Sans"
       xml:space="preserve"><tspan
         y="323.78439"
         x="135.6489"
         id="tspan3067"
         sodipodi:role="line">group</tspan><tspan
         id="tspan3069"
         y="343.78439"
         x="135.6489"
         sodipodi:role="line">1</tspan><tspan
         id="tspan3071"
         y="363.78439"
         x="135.6489"
         sodipodi:role="line">1</tspan><tspan
         id="tspan3085"
         y="383.78439"
         x="135.6489"
         sodipodi:role="line">2</tspan><tspan
         y="403.78439"
         x="135.6489"
         sodipodi:role="line"
         id="tspan5590">2</tspan></text>
    <text
       sodipodi:linespacing="125%"
       id="text3087"
       y="324.04221"
       x="184.39499"
       style="font-size:16px;font-style:normal;font-variant:normal;font-weight:normal;font-stretch:normal;text-align:end;line-height:125%;letter-spacing:0px;word-spacing:0px;writing-mode:lr-tb;text-anchor:end;fill:#000000;fill-opacity:1;stroke:none;font-family:Sans;-inkscape-font-specification:Sans"
       xml:space="preserve"><tspan
         y="324.04221"
         x="184.39499"
         id="tspan3089"
         sodipodi:role="line">weight</tspan><tspan
         id="tspan3091"
         y="344.04221"
         x="184.39499"
         sodipodi:role="line">1</tspan><tspan
         id="tspan3111"
         y="364.04221"
         x="184.39499"
         sodipodi:role="line">0</tspan><tspan
         y="384.04221"
         x="184.39499"
         sodipodi:role="line"
         id="tspan5627">1</tspan><tspan
         y="404.04221"
         x="184.39499"
         sodipodi:role="line"
         id="tspan5629">0</tspan><tspan
         y="424.04221"
         x="184.39499"
         sodipodi:role="line"
         id="tspan5631" /></text>
    <rect
       style="fill:#ff0000;fill-opacity:0.5098038;stroke:none"
       id="rect3123"
       width="144.45181"
       height="39.285713"
       x="52.332863"
       y="436.29919"
       rx="16.387217" />
    <text
       xml:space="preserve"
       style="font-size:16px;font-style:normal;font-variant:normal;font-weight:normal;font-stretch:normal;text-align:end;line-height:125%;letter-spacing:0px;word-spacing:0px;writing-mode:lr-tb;text-anchor:end;fill:#000000;fill-opacity:1;stroke:none;font-family:Sans;-inkscape-font-specification:Sans"
       x="91.708511"
       y="431.97919"
       id="text3129"
       sodipodi:linespacing="125%"><tspan
         sodipodi:role="line"
         id="tspan3131"
         x="91.708511"
         y="431.97919">voxel</tspan><tspan
         sodipodi:role="line"
         x="91.708511"
         y="451.97919"
         id="tspan3133">1</tspan><tspan
         sodipodi:role="line"
         x="91.708511"
         y="471.97919"
         id="tspan3135">2</tspan><tspan
         sodipodi:role="line"
         x="91.708511"
         y="491.97919"
         id="tspan3137">3</tspan><tspan
         sodipodi:role="line"
         x="91.708511"
         y="511.97919"
         id="tspan3139">4</tspan><tspan
         sodipodi:role="line"
         x="91.708511"
         y="531.97919"
         id="tspan3149" /></text>
    <text
       xml:space="preserve"
       style="font-size:16px;font-style:normal;font-variant:normal;font-weight:normal;font-stretch:normal;text-align:end;line-height:125%;letter-spacing:0px;word-spacing:0px;writing-mode:lr-tb;text-anchor:end;fill:#000000;fill-opacity:1;stroke:none;font-family:Sans;-inkscape-font-specification:Sans"
       x="139.47414"
       y="431.72137"
       id="text3151"
       sodipodi:linespacing="125%"><tspan
         sodipodi:role="line"
         id="tspan3153"
         x="139.47414"
         y="431.72137">group</tspan><tspan
         sodipodi:role="line"
         x="139.47414"
         y="451.72137"
         id="tspan3155">1</tspan><tspan
         sodipodi:role="line"
         x="139.47414"
         y="471.72137"
         id="tspan3157">1</tspan><tspan
         sodipodi:role="line"
         x="139.47414"
         y="491.72137"
         id="tspan3161">2</tspan><tspan
         sodipodi:role="line"
         x="139.47414"
         y="511.72137"
         id="tspan3163">2</tspan><tspan
         sodipodi:role="line"
         x="139.47414"
         y="531.72137"
         id="tspan3171" /></text>
    <text
       xml:space="preserve"
       style="font-size:16px;font-style:normal;font-variant:normal;font-weight:normal;font-stretch:normal;text-align:end;line-height:125%;letter-spacing:0px;word-spacing:0px;writing-mode:lr-tb;text-anchor:end;fill:#000000;fill-opacity:1;stroke:none;font-family:Sans;-inkscape-font-specification:Sans"
       x="188.22023"
       y="431.97919"
       id="text3173"
       sodipodi:linespacing="125%"><tspan
         sodipodi:role="line"
         id="tspan3175"
         x="188.22023"
         y="431.97919">weight</tspan><tspan
         sodipodi:role="line"
         x="188.22023"
         y="451.97919"
         id="tspan3193">1</tspan><tspan
         id="tspan3249"
         sodipodi:role="line"
         x="188.22023"
         y="471.97919">1</tspan><tspan
         id="tspan3251"
         sodipodi:role="line"
         x="188.22023"
         y="491.97919">0</tspan><tspan
         id="tspan3253"
         sodipodi:role="line"
         x="188.22023"
         y="511.97919">0</tspan></text>
    <text
       sodipodi:linespacing="125%"
       id="text3656"
       y="353.12061"
       x="233.85031"
       style="font-size:16px;font-style:normal;font-weight:normal;line-height:125%;letter-spacing:0px;word-spacing:0px;fill:#ff0000;fill-opacity:1;stroke:none;font-family:Sans"
       xml:space="preserve"><tspan
         y="353.12061"
         x="233.85031"
         id="tspan3658"
         sodipodi:role="line">1</tspan></text>
    <text
       sodipodi:linespacing="125%"
       id="text3660"
       y="489.59442"
       x="232.71759"
       style="font-size:16px;font-style:normal;font-weight:normal;line-height:125%;letter-spacing:0px;word-spacing:0px;fill:#0000ff;fill-opacity:1;stroke:none;font-family:Sans"
       xml:space="preserve"><tspan
         y="489.59442"
         x="232.71759"
         id="tspan3662"
         sodipodi:role="line">0</tspan></text>
    <text
       xml:space="preserve"
       style="font-size:16px;font-style:normal;font-weight:normal;line-height:125%;letter-spacing:0px;word-spacing:0px;fill:#0000ff;fill-opacity:1;stroke:none;font-family:Sans"
       x="232.77888"
       y="381.12061"
       id="text4126"
       sodipodi:linespacing="125%"><tspan
         sodipodi:role="line"
         id="tspan4128"
         x="232.77888"
         y="381.12061">1</tspan></text>
    <g
       id="g5343"
       transform="matrix(0.34730226,0,0,0.34730226,119.29663,338.52264)"
       style="fill:#ff0000">
      <g
         word-spacing="normal"
         letter-spacing="normal"
         font-size-adjust="none"
         font-stretch="normal"
         font-weight="normal"
         font-variant="normal"
         font-style="normal"
         stroke-miterlimit="10.433"
         xml:space="preserve"
         transform="matrix(1.0629921,0,0,-1.0629921,-186.02362,789.27165)"
         id="g5345"
         style="font-style:normal;font-variant:normal;font-weight:normal;font-stretch:normal;letter-spacing:normal;word-spacing:normal;text-anchor:start;fill:#ff0000;stroke:#000000;stroke-linecap:butt;stroke-linejoin:miter;stroke-miterlimit:10.43299961;stroke-opacity:1;stroke-dasharray:none;stroke-dashoffset:0"><path
           id="path5347"
           d="m 474.89,404.77 -8.76,19.37 c -0.34,0.8 -0.59,0.8 -0.75,0.8 -0.05,0 -0.3,0 -0.84,-0.39 l -4.74,-3.6 c -0.64,-0.5 -0.64,-0.64 -0.64,-0.79 0,-0.25 0.14,-0.55 0.5,-0.55 0.3,0 1.14,0.7 1.69,1.09 0.29,0.25 1.04,0.8 1.59,1.21 l 9.81,-21.58 c 0.36,-0.8 0.61,-0.8 1.05,-0.8 0.75,0 0.91,0.3 1.25,1 l 22.63,46.83 c 0.34,0.7 0.34,0.89 0.34,1 0,0.5 -0.41,1 -1,1 -0.39,0 -0.75,-0.25 -1.14,-1.05 z"
           inkscape:connector-curvature="0"
           style="fill:#ff0000;stroke-width:0" /><polyline
           id="polyline5349"
           points="497,447 521.96,447 521.96,449.04 497,449.04 "
           style="fill:#ff0000;fill-rule:nonzero;stroke-width:0" /><path
           id="path5351"
           d="m 503.37,410.04 5.28,5.13 c 7.76,6.87 10.76,9.56 10.76,14.54 0,5.69 -4.48,9.68 -10.56,9.68 -5.64,0 -9.33,-4.6 -9.33,-9.03 0,-2.79 2.5,-2.79 2.64,-2.79 0.86,0 2.6,0.6 2.6,2.64 0,1.3 -0.89,2.6 -2.64,2.6 -0.39,0 -0.5,0 -0.64,-0.05 1.14,3.24 3.82,5.08 6.72,5.08 4.53,0 6.68,-4.05 6.68,-8.13 0,-3.98 -2.5,-7.92 -5.23,-11.01 l -9.56,-10.66 c -0.57,-0.54 -0.57,-0.64 -0.57,-1.84 h 18.49 l 1.4,8.67 h -1.25 c -0.25,-1.5 -0.59,-3.69 -1.09,-4.44 -0.36,-0.39 -3.64,-0.39 -4.73,-0.39 z"
           inkscape:connector-curvature="0"
           style="fill:#ff0000;stroke-width:0" /></g>    </g>
    <rect
       rx="16.387217"
       y="476.29919"
       x="52.332863"
       height="39.285713"
       width="144.45181"
       id="rect5545"
       style="fill:#0000ff;fill-opacity:0.5098038;stroke:none" />
    <g
       id="g5960"
       transform="matrix(0.29929331,0,0,0.29929331,-9.550875,168.49444)">
      <g
         word-spacing="normal"
         letter-spacing="normal"
         font-size-adjust="none"
         font-stretch="normal"
         font-weight="normal"
         font-variant="normal"
         font-style="normal"
         stroke-miterlimit="10.433"
         xml:space="preserve"
         transform="matrix(1.0629921,0,0,-1.0629921,-186.02362,789.27165)"
         id="g5962"
         style="font-style:normal;font-variant:normal;font-weight:normal;font-stretch:normal;letter-spacing:normal;word-spacing:normal;text-anchor:start;fill:none;stroke:#000000;stroke-linecap:butt;stroke-linejoin:miter;stroke-miterlimit:10.43299961;stroke-opacity:1;stroke-dasharray:none;stroke-dashoffset:0"><path
           id="path5964"
           d="m 1208.2,274.17 6.1,15.94 h -1.3 c -1.9,-5.17 -7.2,-8.56 -12.9,-10.06 -1.1,-0.25 -6,-1.55 -15.5,-1.55 h -30.1 l 25.4,29.75 c 0.3,0.39 0.4,0.55 0.4,0.8 0,0.09 0,0.25 -0.3,0.75 l -23.2,31.73 h 27.3 c 6.7,0 11.2,-0.7 11.6,-0.8 2.7,-0.4 7.1,-1.25 11,-3.73 1.2,-0.8 4.6,-3.05 6.3,-7.08 h 1.3 l -6.1,14 h -58.9 c -1.1,0 -1.2,-0.04 -1.3,-0.34 0,-0.16 0,-1.1 0,-1.66 l 26.3,-36.06 -25.8,-30.25 c -0.5,-0.59 -0.5,-0.84 -0.5,-0.89 0,-0.55 0.4,-0.55 1.3,-0.55 z"
           inkscape:connector-curvature="0"
           style="fill:#000000;stroke-width:0" /><path
           id="path5966"
           d="m 1185.4,259.62 0,0.05 0,0.06 0,0.05 0,0.06 -0.1,0.05 0,0.06 0,0.05 0,0.06 0,0.06 0,0.05 -0.1,0.06 0,0.05 0,0.06 -0.1,0.05 0,0.05 -0.1,0.05 0,0.05 0,0.05 -0.1,0.04 -0.1,0.04 0,0.04 -0.1,0.04 0,0.04 -0.1,0.03 -0.1,0.03 0,0.02 -0.1,0.03 -0.1,0.01 -0.1,0.02 -0.1,0.01 0,0.01 -0.1,0 c -1,0 -2,-0.91 -2,-1.92 0,-0.6 0.5,-1.33 1.4,-1.33 1,0 2,0.98 2,1.92 z"
           inkscape:connector-curvature="0"
           style="fill:#000000;stroke-width:0" /><path
           id="path5968"
           d="m 1178.3,241.92 -0.1,-0.09 0,-0.08 0,-0.17 -0.1,-0.08 0,-0.09 0,-0.09 0,-0.08 -0.1,-0.09 0,-0.09 0,-0.1 0,-0.09 0,-0.05 0,-0.05 0,-0.05 0,-0.06 0,-0.05 0,-0.05 0,-0.06 -0.1,-0.05 c 0,-1.64 1.4,-2.95 3.4,-2.95 3.4,0 5,4.79 5,5.32 0,0.46 -0.5,0.46 -0.6,0.46 -0.5,0 -0.5,-0.21 -0.6,-0.6 -0.8,-2.78 -2.4,-4.22 -3.7,-4.22 -0.7,0 -0.9,0.46 -0.9,1.22 0,0.8 0.2,1.47 0.6,2.24 0.3,0.93 0.7,1.87 1.1,2.78 0.3,0.84 1.5,4.01 1.7,4.44 0.1,0.34 0.2,0.76 0.2,1.11 0,1.64 -1.4,2.95 -3.3,2.95 -3.5,0 -5.1,-4.74 -5.1,-5.33 0,-0.45 0.5,-0.45 0.6,-0.45 0.5,0 0.5,0.17 0.6,0.56 0.9,3 2.5,4.25 3.8,4.25 0.5,0 0.8,-0.28 0.8,-1.22 0,-0.8 -0.2,-1.33 -1.1,-3.48 z"
           inkscape:connector-curvature="0"
           style="fill:#000000;stroke-width:0" /><path
           id="path5970"
           d="m 1224.4,309.79 0,-0.16 0,-0.15 0,-0.16 0,-0.08 0,-0.08 0,-0.08 0,-0.08 0,-0.07 0,-0.08 0.1,-0.07 0,-0.08 0,-0.07 0,-0.07 0,-0.06 0.1,-0.07 0,-0.06 0,-0.06 0.1,-0.05 0,-0.05 0.1,-0.05 0,-0.04 0.1,-0.02 0,-0.02 0,-0.02 0,-0.02 0.1,-0.01 0,-0.02 0,-0.01 0.1,-0.01 0,-0.01 0.1,-0.01 0,-0.01 0,-0.01 0.1,0 0,-0.01 0.1,0 0,0 c 1.1,0 1.1,1 1.1,1.85 v 28.29 c 0,0.8 0,1.85 -1,1.85 -1.1,0 -1.1,-1 -1.1,-1.85 z"
           inkscape:connector-curvature="0"
           style="fill:#000000;stroke-width:0" /><path
           id="path5972"
           d="m 1224.4,279.91 0,-0.16 0,-0.15 0,-0.16 0,-0.08 0,-0.08 0,-0.08 0,-0.07 0,-0.08 0,-0.08 0.1,-0.07 0,-0.07 0,-0.08 0,-0.06 0,-0.07 0.1,-0.06 0,-0.07 0,-0.05 0.1,-0.06 0,-0.05 0.1,-0.05 0,-0.04 0.1,-0.02 0,-0.02 0,-0.02 0,-0.02 0.1,-0.01 0,-0.02 0,-0.01 0.1,-0.01 0,-0.01 0.1,-0.01 0,-0.01 0,-0.01 0.1,0 0,0 0.1,-0.01 0,0 c 1.1,0 1.1,1 1.1,1.85 v 28.29 c 0,0.8 0,1.85 -1,1.85 -1.1,0 -1.1,-1 -1.1,-1.85 z"
           inkscape:connector-curvature="0"
           style="fill:#000000;stroke-width:0" /><path
           id="path5974"
           d="m 1256.7,313.53 0.1,0.11 0,0.1 0,0.12 0,0.11 0.1,0.12 0,0.12 0.1,0.25 0,0.25 0.1,0.25 0,0.25 0.1,0.24 0,0.12 0.1,0.11 0,0.11 0,0.11 0,0.1 0.1,0.1 0,0.1 0,0.09 0,0.08 0,0.08 0,0.07 0.1,0.07 0,0.05 0,0.05 0,0.04 0,0.04 c 0,0.9 -0.7,1.34 -1.5,1.34 -0.6,0 -1.4,-0.39 -1.8,-1.39 -0.1,-0.34 -2.5,-9.86 -2.8,-11.16 -0.4,-1.5 -0.5,-2.39 -0.5,-3.29 0,-0.55 0,-0.64 0,-0.89 -1.1,-2.65 -2.6,-4.19 -4.5,-4.19 -4,0 -4,3.69 -4,4.53 0,1.59 0.2,3.55 2.6,9.67 0.5,1.49 0.8,2.19 0.8,3.19 0,2.23 -1.6,4.08 -4.1,4.08 -4.7,0 -6.5,-7.22 -6.5,-7.68 0,-0.5 0.5,-0.5 0.6,-0.5 0.5,0 0.5,0.11 0.8,0.91 1.3,4.63 3.2,6.17 5,6.17 0.4,0 1.2,-0.04 1.2,-1.64 0,-1.25 -0.5,-2.64 -0.9,-3.48 -2.1,-5.88 -2.7,-8.17 -2.7,-10.06 0,-4.54 3.3,-6.29 7,-6.29 0.9,0 3.2,0 5.2,3.49 1.3,-3.19 4.7,-3.49 6.2,-3.49 3.8,0 6,3.14 7.3,6.13 1.7,3.89 3.2,10.56 3.2,12.95 0,2.75 -1.3,3.49 -2.2,3.49 -1.2,0 -2.4,-1.3 -2.4,-2.39 0,-0.64 0.3,-0.94 0.7,-1.35 0.6,-0.54 1.8,-1.84 1.8,-4.23 0,-1.69 -1.4,-6.58 -2.7,-9.11 -1.3,-2.64 -3.1,-4.39 -5.5,-4.39 -2.4,0 -3.7,1.5 -3.7,4.33 0,1.4 0.3,2.95 0.5,3.64 z"
           inkscape:connector-curvature="0"
           style="fill:#000000;stroke-width:0" /><path
           id="path5976"
           d="m 1287.9,301.94 0,0.05 0,0.04 0,0.04 0,0.05 0,0.04 0.1,0.03 0,0.04 0,0.03 0,0.04 0,0.03 0,0.03 0,0.02 0,0.03 0,0.03 0,0.02 0,0.02 0,0.02 0,0.02 0,0.02 0,0.01 0,0.02 0,0.01 0,0.02 0,0.01 0,0.01 0,0.01 0,0.01 0,0.01 0,0.01 0,0 0,0.01 0,0 c 0,0.77 -0.6,1.11 -1.2,1.11 -0.7,0 -1.4,-0.65 -1.5,-1.33 -0.6,0.96 -1.8,1.99 -3.6,1.99 v -0.97 c 2.4,0 3.1,-2.61 3.1,-2.97 0,-0.06 0,-0.12 -0.1,-0.52 l -1.6,-6.26 c -0.2,-0.53 -0.2,-0.59 -0.7,-1.3 -1.3,-1.47 -2.9,-2.37 -4.3,-2.37 -1.7,0 -2.6,1.5 -2.6,3.31 0,1.53 1,5.44 1.9,6.97 1.4,2.44 3.1,3.14 4.3,3.14 v 0.97 c -4.4,0 -9,-4.66 -9,-9.64 0,-3.6 2.5,-5.72 5.3,-5.72 1.6,0 3.2,0.8 4.4,1.87 l -0.8,-3.12 c -0.4,-1.47 -0.6,-2.41 -1.9,-3.6 -1.6,-1.28 -3.1,-1.28 -3.9,-1.28 -1.6,0 -2.1,0.1 -2.7,0.24 0.8,0.42 1.1,1.25 1.1,1.75 0,0.83 -0.6,1.28 -1.4,1.28 -0.9,0 -1.9,-0.8 -1.9,-2.13 0,-2.09 3,-2.12 4.9,-2.12 5.5,0 7.8,2.78 8.3,4.78 z"
           inkscape:connector-curvature="0"
           style="fill:#000000;stroke-width:0" /><path
           id="path5978"
           d="m 1297.4,289.64 0,-0.36 -0.1,-0.37 0,-0.38 0,-0.38 -0.1,-0.2 0,-0.19 0,-0.2 -0.1,-0.2 0,-0.19 -0.1,-0.2 0,-0.2 -0.1,-0.21 -0.1,-0.2 -0.1,-0.2 -0.1,-0.2 -0.1,-0.21 -0.1,-0.2 -0.1,-0.21 -0.1,-0.21 -0.1,-0.2 -0.2,-0.21 -0.1,-0.21 -0.2,-0.2 -0.2,-0.21 -0.1,-0.21 -0.2,-0.21 -0.2,-0.21 -0.3,-0.2 c -0.1,-0.14 -0.2,-0.25 -0.2,-0.43 0,-0.25 0.3,-0.48 0.5,-0.48 0.5,0 3.4,2.78 3.4,6.92 0,2.17 -0.8,3.8 -2.4,3.8 -1.2,0 -2,-0.91 -2,-1.99 0,-1.11 0.8,-2.01 2,-2.01 0.9,0 1.4,0.56 1.5,0.56 z"
           inkscape:connector-curvature="0"
           style="fill:#000000;stroke-width:0" /><path
           id="path5980"
           d="m 1313.2,310.86 0,0.05 0,0.05 0,0.06 0,0.05 -0.1,0.06 0,0.05 0,0.06 0,0.06 0,0.05 -0.1,0.06 0,0.06 0,0.05 0,0.05 -0.1,0.06 0,0.05 -0.1,0.05 0,0.05 -0.1,0.04 0,0.05 -0.1,0.04 0,0.04 -0.1,0.04 0,0.04 -0.1,0.03 -0.1,0.03 0,0.02 -0.1,0.02 -0.1,0.02 -0.1,0.02 -0.1,0.01 0,0.01 -0.1,0 c -1,0 -2,-0.91 -2,-1.92 0,-0.6 0.5,-1.33 1.4,-1.33 1,0 2,0.98 2,1.92 z"
           inkscape:connector-curvature="0"
           style="fill:#000000;stroke-width:0" /><path
           id="path5982"
           d="m 1306.1,293.16 -0.1,-0.17 0,-0.17 -0.1,-0.09 0,-0.08 0,-0.09 0,-0.09 -0.1,-0.08 0,-0.1 0,-0.09 0,-0.1 0,-0.1 0,-0.05 0,-0.05 0,-0.05 0,-0.05 0,-0.06 0,-0.05 c 0,-1.64 1.3,-2.96 3.3,-2.96 3.4,0 5,4.8 5,5.33 0,0.46 -0.5,0.46 -0.6,0.46 -0.5,0 -0.5,-0.21 -0.7,-0.6 -0.7,-2.78 -2.3,-4.22 -3.6,-4.22 -0.8,0 -0.9,0.46 -0.9,1.22 0,0.8 0.2,1.47 0.5,2.24 0.4,0.93 0.8,1.87 1.1,2.78 0.4,0.84 1.6,4.01 1.8,4.44 0.1,0.34 0.2,0.76 0.2,1.1 0,1.65 -1.4,2.96 -3.3,2.96 -3.5,0 -5.1,-4.74 -5.1,-5.33 0,-0.45 0.5,-0.45 0.6,-0.45 0.5,0 0.5,0.17 0.6,0.56 0.9,3 2.5,4.25 3.7,4.25 0.6,0 0.9,-0.28 0.9,-1.22 0,-0.8 -0.2,-1.33 -1,-3.48 z"
           inkscape:connector-curvature="0"
           style="fill:#000000;stroke-width:0" /><path
           id="path5984"
           d="m 1325.7,309.79 0,-0.16 0,-0.15 0,-0.16 0,-0.08 0,-0.08 0,-0.08 0,-0.08 0,-0.07 0,-0.08 0,-0.07 0,-0.08 0.1,-0.07 0,-0.07 0,-0.06 0,-0.07 0.1,-0.06 0,-0.06 0.1,-0.05 0,-0.05 0,-0.05 0.1,-0.04 0,-0.02 0.1,-0.02 0,-0.02 0,-0.02 0.1,-0.01 0,-0.02 0,-0.01 0.1,-0.01 0,-0.01 0,-0.01 0.1,-0.01 0,-0.01 0.1,0 0,-0.01 0.1,0 0,0 c 1.1,0 1.1,1 1.1,1.85 v 28.29 c 0,0.8 0,1.85 -1,1.85 -1.1,0 -1.1,-1 -1.1,-1.85 z"
           inkscape:connector-curvature="0"
           style="fill:#000000;stroke-width:0" /><path
           id="path5986"
           d="m 1325.7,279.91 0,-0.16 0,-0.15 0,-0.16 0,-0.08 0,-0.08 0,-0.08 0,-0.07 0,-0.08 0,-0.08 0,-0.07 0,-0.07 0.1,-0.08 0,-0.06 0,-0.07 0,-0.06 0.1,-0.07 0,-0.05 0.1,-0.06 0,-0.05 0,-0.05 0.1,-0.04 0,-0.02 0.1,-0.02 0,-0.02 0,-0.02 0.1,-0.01 0,-0.02 0,-0.01 0.1,-0.01 0,-0.01 0,-0.01 0.1,-0.01 0,-0.01 0.1,0 0,0 0.1,-0.01 0,0 c 1.1,0 1.1,1 1.1,1.85 v 28.29 c 0,0.8 0,1.85 -1,1.85 -1.1,0 -1.1,-1 -1.1,-1.85 z"
           inkscape:connector-curvature="0"
           style="fill:#000000;stroke-width:0" /></g>    </g>
    <text
       xml:space="preserve"
       style="font-size:16px;font-style:normal;font-weight:normal;line-height:125%;letter-spacing:0px;word-spacing:0px;fill:#ff0000;fill-opacity:1;stroke:none;font-family:Sans"
       x="330.78943"
       y="353.12061"
       id="text6082"
       sodipodi:linespacing="125%"><tspan
         sodipodi:role="line"
         id="tspan6084"
         x="330.78943"
         y="353.12061">1</tspan></text>
    <text
       sodipodi:linespacing="125%"
       id="text6086"
       y="381.12061"
       x="330.78943"
       style="font-size:16px;font-style:normal;font-weight:normal;line-height:125%;letter-spacing:0px;word-spacing:0px;fill:#0000ff;fill-opacity:1;stroke:none;font-family:Sans"
       xml:space="preserve"><tspan
         y="381.12061"
         x="330.78943"
         id="tspan6088"
         sodipodi:role="line">1</tspan></text>
    <text
       sodipodi:linespacing="125%"
       id="text6090"
       y="461.69205"
       x="330.78943"
       style="font-size:16px;font-style:normal;font-weight:normal;line-height:125%;letter-spacing:0px;word-spacing:0px;fill:#ff0000;fill-opacity:1;stroke:none;font-family:Sans"
       xml:space="preserve"><tspan
         y="461.69205"
         x="330.78943"
         id="tspan6092"
         sodipodi:role="line">2</tspan></text>
    <text
       xml:space="preserve"
       style="font-size:16px;font-style:normal;font-weight:normal;line-height:125%;letter-spacing:0px;word-spacing:0px;fill:#0000ff;fill-opacity:1;stroke:none;font-family:Sans"
       x="330.78943"
       y="489.69205"
       id="text6094"
       sodipodi:linespacing="125%"><tspan
         sodipodi:role="line"
         id="tspan6096"
         x="330.78943"
         y="489.69205">0</tspan></text>
    <text
       xml:space="preserve"
       style="font-size:16px;font-style:normal;font-weight:normal;line-height:125%;letter-spacing:0px;word-spacing:0px;fill:#000000;fill-opacity:1;stroke:none;font-family:Sans"
       x="232.36873"
       y="402.50504"
       id="text6098"
       sodipodi:linespacing="125%"><tspan
         sodipodi:role="line"
         id="tspan6100"
         x="232.36873"
         y="402.50504">2</tspan></text>
    <g
       style="fill:#000000"
       transform="matrix(0.29380244,0,0,0.30684725,138.56359,404.41436)"
       id="g6110">
      <g
         style="font-style:normal;font-variant:normal;font-weight:normal;font-stretch:normal;letter-spacing:normal;word-spacing:normal;text-anchor:start;fill:#000000;stroke:#000000;stroke-linecap:butt;stroke-linejoin:miter;stroke-miterlimit:10.43299961;stroke-opacity:1;stroke-dasharray:none;stroke-dashoffset:0"
         id="g6112"
         transform="matrix(1.0629921,0,0,-1.0629921,-186.02362,789.27165)"
         xml:space="preserve"
         stroke-miterlimit="10.433"
         font-style="normal"
         font-variant="normal"
         font-weight="normal"
         font-stretch="normal"
         font-size-adjust="none"
         letter-spacing="normal"
         word-spacing="normal"><path
           style="fill:#000000;stroke-width:0"
           inkscape:connector-curvature="0"
           d="m 474.89,404.77 -8.76,19.37 c -0.34,0.8 -0.59,0.8 -0.75,0.8 -0.05,0 -0.3,0 -0.84,-0.39 l -4.74,-3.6 c -0.64,-0.5 -0.64,-0.64 -0.64,-0.79 0,-0.25 0.14,-0.55 0.5,-0.55 0.3,0 1.14,0.7 1.69,1.09 0.29,0.25 1.04,0.8 1.59,1.21 l 9.81,-21.58 c 0.36,-0.8 0.61,-0.8 1.05,-0.8 0.75,0 0.91,0.3 1.25,1 l 22.63,46.83 c 0.34,0.7 0.34,0.89 0.34,1 0,0.5 -0.41,1 -1,1 -0.39,0 -0.75,-0.25 -1.14,-1.05 z"
           id="path6114" /><polyline
           style="fill:#000000;fill-rule:nonzero;stroke-width:0"
           points="497,447 521.96,447 521.96,449.04 497,449.04 "
           id="polyline6116" /><path
           style="fill:#000000;stroke-width:0"
           inkscape:connector-curvature="0"
           d="m 503.37,410.04 5.28,5.13 c 7.76,6.87 10.76,9.56 10.76,14.54 0,5.69 -4.48,9.68 -10.56,9.68 -5.64,0 -9.33,-4.6 -9.33,-9.03 0,-2.79 2.5,-2.79 2.64,-2.79 0.86,0 2.6,0.6 2.6,2.64 0,1.3 -0.89,2.6 -2.64,2.6 -0.39,0 -0.5,0 -0.64,-0.05 1.14,3.24 3.82,5.08 6.72,5.08 4.53,0 6.68,-4.05 6.68,-8.13 0,-3.98 -2.5,-7.92 -5.23,-11.01 l -9.56,-10.66 c -0.57,-0.54 -0.57,-0.64 -0.57,-1.84 h 18.49 l 1.4,8.67 h -1.25 c -0.25,-1.5 -0.59,-3.69 -1.09,-4.44 -0.36,-0.39 -3.64,-0.39 -4.73,-0.39 z"
           id="path6118" /></g>    </g>
    <path
       style="fill:none;stroke:#000000;stroke-width:0.82041264px;stroke-linecap:butt;stroke-linejoin:miter;stroke-opacity:1"
       d="m 221.96699,388.93361 29.32692,0"
       id="path6120"
       inkscape:connector-curvature="0" />
    <text
       sodipodi:linespacing="125%"
       id="text6122"
       y="402.50504"
       x="330.37927"
       style="font-size:16px;font-style:normal;font-weight:normal;line-height:125%;letter-spacing:0px;word-spacing:0px;fill:#000000;fill-opacity:1;stroke:none;font-family:Sans"
       xml:space="preserve"><tspan
         y="402.50504"
         x="330.37927"
         id="tspan6124"
         sodipodi:role="line">2</tspan></text>
    <path
       inkscape:connector-curvature="0"
       id="path6126"
       d="m 319.97753,388.93361 29.32692,0"
       style="fill:none;stroke:#000000;stroke-width:0.82041264px;stroke-linecap:butt;stroke-linejoin:miter;stroke-opacity:1" />
    <text
       xml:space="preserve"
       style="font-size:16px;font-style:normal;font-weight:normal;line-height:125%;letter-spacing:0px;word-spacing:0px;fill:#000000;fill-opacity:1;stroke:none;font-family:Sans"
       x="330.37927"
       y="509.64789"
       id="text6128"
       sodipodi:linespacing="125%"><tspan
         sodipodi:role="line"
         id="tspan6130"
         x="330.37927"
         y="509.64789">2</tspan></text>
    <path
       style="fill:none;stroke:#000000;stroke-width:0.82041264px;stroke-linecap:butt;stroke-linejoin:miter;stroke-opacity:1"
       d="m 319.97753,496.07647 29.32692,0"
       id="path6132"
       inkscape:connector-curvature="0" />
    <path
       inkscape:connector-curvature="0"
       id="path6134"
       d="m 222.45257,496.07647 29.32692,0"
       style="fill:none;stroke:#000000;stroke-width:0.82041264px;stroke-linecap:butt;stroke-linejoin:miter;stroke-opacity:1" />
    <text
       xml:space="preserve"
       style="font-size:16px;font-style:normal;font-weight:normal;line-height:125%;letter-spacing:0px;word-spacing:0px;fill:#000000;fill-opacity:1;stroke:none;font-family:Sans"
       x="215.42857"
       y="375.07648"
       id="text6136"
       sodipodi:linespacing="125%"><tspan
         sodipodi:role="line"
         id="tspan6138"
         x="215.42857"
         y="375.07648">+</tspan></text>
    <text
       sodipodi:linespacing="125%"
       id="text6140"
       y="375.07648"
       x="313.14285"
       style="font-size:16px;font-style:normal;font-weight:normal;line-height:125%;letter-spacing:0px;word-spacing:0px;fill:#000000;fill-opacity:1;stroke:none;font-family:Sans"
       xml:space="preserve"><tspan
         y="375.07648"
         x="313.14285"
         id="tspan6142"
         sodipodi:role="line">+</tspan></text>
    <text
       sodipodi:linespacing="125%"
       id="text6144"
       y="483.79077"
       x="215.42857"
       style="font-size:16px;font-style:normal;font-weight:normal;line-height:125%;letter-spacing:0px;word-spacing:0px;fill:#000000;fill-opacity:1;stroke:none;font-family:Sans"
       xml:space="preserve"><tspan
         y="483.79077"
         x="215.42857"
         id="tspan6146"
         sodipodi:role="line">+</tspan></text>
    <text
       xml:space="preserve"
       style="font-size:16px;font-style:normal;font-weight:normal;line-height:125%;letter-spacing:0px;word-spacing:0px;fill:#000000;fill-opacity:1;stroke:none;font-family:Sans"
       x="313.14285"
       y="483.79077"
       id="text6148"
       sodipodi:linespacing="125%"><tspan
         sodipodi:role="line"
         id="tspan6150"
         x="313.14285"
         y="483.79077">+</tspan></text>
    <text
       xml:space="preserve"
       style="font-size:14px;font-style:normal;font-weight:normal;line-height:125%;letter-spacing:0px;word-spacing:0px;fill:#000000;fill-opacity:1;stroke:none;font-family:Sans"
       x="201.80377"
       y="283.2598"
       id="text6152"
       sodipodi:linespacing="125%"><tspan
         sodipodi:role="line"
         id="tspan6154"
         x="201.80377"
         y="283.2598">group Lasso</tspan></text>
    <text
       xml:space="preserve"
       style="font-size:14px;font-style:normal;font-weight:normal;line-height:125%;letter-spacing:0px;word-spacing:0px;fill:#000000;fill-opacity:1;stroke:none;font-family:Sans"
       x="315.70203"
       y="284.65091"
       id="text6156"
       sodipodi:linespacing="125%"><tspan
         sodipodi:role="line"
         id="tspan6158"
         x="315.70203"
         y="284.65091">Lasso</tspan></text>
    <g
       id="g6568"
       transform="matrix(0.82535968,0,0,0.82535968,-98.416114,177.10602)">
      <g
         word-spacing="normal"
         letter-spacing="normal"
         font-size-adjust="none"
         font-stretch="normal"
         font-weight="normal"
         font-variant="normal"
         font-style="normal"
         stroke-miterlimit="10.433"
         xml:space="preserve"
         transform="matrix(0.38309056,0,0,-0.38309056,-67.040847,268.93661)"
         id="g6570"
         style="font-style:normal;font-variant:normal;font-weight:normal;font-stretch:normal;letter-spacing:normal;word-spacing:normal;text-anchor:start;fill:none;stroke:#000000;stroke-linecap:butt;stroke-linejoin:miter;stroke-miterlimit:10.43299961;stroke-opacity:1;stroke-dasharray:none;stroke-dashoffset:0"><path
           id="path6572"
           d="m 1145.1,274.66 -6.6,-12.95 c -0.2,-0.5 -0.3,-0.61 -0.3,-0.66 0,-0.2 0.6,-0.75 0.7,-0.79 l 3.4,6.58 11.5,-66.91 c 1.5,0 1.9,0 2.1,1.3 l 27.6,147.17 c 0,0.55 -0.4,1 -1,1 -0.8,0 -0.9,-0.66 -1.1,-1.5 l -25.5,-135.77 h -0.1 z"
           inkscape:connector-curvature="0"
           style="fill:#000000;stroke-width:0" /><polyline
           id="polyline6574"
           points="1182,347 1347.1,347 1347.1,349.04 1182,349.04 "
           style="fill:#000000;fill-rule:nonzero;stroke-width:0" /><path
           id="path6576"
           d="m 1245.6,253.29 6,15.94 h -1.3 c -1.9,-5.18 -7.2,-8.57 -12.9,-10.07 -1.1,-0.25 -6,-1.54 -15.5,-1.54 h -30.1 l 25.4,29.75 c 0.4,0.39 0.5,0.54 0.5,0.79 0,0.1 0,0.25 -0.4,0.75 l -23.2,31.74 h 27.3 c 6.7,0 11.2,-0.7 11.6,-0.8 2.7,-0.4 7.1,-1.25 11,-3.73 1.3,-0.8 4.6,-3.05 6.3,-7.08 h 1.3 l -6,14 h -58.9 c -1.2,0 -1.2,-0.05 -1.4,-0.34 0,-0.16 0,-1.1 0,-1.66 l 26.3,-36.06 -25.8,-30.25 c -0.5,-0.6 -0.5,-0.85 -0.5,-0.89 0,-0.55 0.5,-0.55 1.4,-0.55 z"
           inkscape:connector-curvature="0"
           style="fill:#000000;stroke-width:0" /><path
           id="path6578"
           d="m 1222.7,238.74 0,0.05 0,0.06 0,0.05 0,0.06 0,0.05 0,0.06 -0.1,0.05 0,0.06 0,0.06 0,0.05 -0.1,0.06 0,0.05 0,0.06 -0.1,0.05 0,0.05 0,0.05 -0.1,0.05 0,0.05 -0.1,0.04 0,0.04 -0.1,0.04 0,0.04 -0.1,0.04 -0.1,0.03 0,0.03 -0.1,0.02 -0.1,0.03 -0.1,0.02 0,0.01 -0.1,0.01 -0.1,0.01 -0.1,0 c -1,0 -2,-0.91 -2,-1.92 0,-0.6 0.5,-1.33 1.4,-1.33 1,0 2,0.98 2,1.92 z"
           inkscape:connector-curvature="0"
           style="fill:#000000;stroke-width:0" /><path
           id="path6580"
           d="m 1215.6,221.04 0,-0.09 -0.1,-0.08 0,-0.17 0,-0.08 -0.1,-0.09 0,-0.08 0,-0.09 0,-0.09 -0.1,-0.09 0,-0.1 0,-0.09 0,-0.05 0,-0.05 0,-0.05 0,-0.05 0,-0.06 0,-0.05 0,-0.05 0,-0.06 c 0,-1.64 1.4,-2.95 3.3,-2.95 3.5,0 5,4.79 5,5.33 0,0.45 -0.4,0.45 -0.6,0.45 -0.4,0 -0.5,-0.2 -0.6,-0.6 -0.8,-2.78 -2.4,-4.21 -3.7,-4.21 -0.7,0 -0.9,0.45 -0.9,1.21 0,0.8 0.3,1.47 0.6,2.24 0.3,0.94 0.7,1.87 1.1,2.78 0.3,0.84 1.6,4.02 1.7,4.44 0.1,0.34 0.2,0.76 0.2,1.11 0,1.64 -1.4,2.95 -3.3,2.95 -3.5,0 -5.1,-4.73 -5.1,-5.33 0,-0.45 0.5,-0.45 0.6,-0.45 0.5,0 0.6,0.17 0.7,0.56 0.9,3 2.4,4.25 3.7,4.25 0.5,0 0.8,-0.28 0.8,-1.22 0,-0.79 -0.1,-1.33 -1,-3.48 z"
           inkscape:connector-curvature="0"
           style="fill:#000000;stroke-width:0" /><path
           id="path6582"
           d="m 1285.8,292.65 0,0.11 0,0.11 0.1,0.11 0,0.11 0,0.12 0,0.12 0.1,0.25 0.1,0.25 0,0.25 0.1,0.25 0,0.24 0.1,0.12 0,0.11 0,0.11 0.1,0.11 0,0.11 0,0.1 0,0.09 0,0.09 0.1,0.08 0,0.08 0,0.07 0,0.07 0,0.05 0,0.05 0,0.04 0,0.04 c 0,0.9 -0.7,1.34 -1.4,1.34 -0.6,0 -1.5,-0.39 -1.8,-1.39 -0.2,-0.34 -2.5,-9.86 -2.9,-11.16 -0.4,-1.5 -0.5,-2.39 -0.5,-3.29 0,-0.55 0,-0.64 0.1,-0.89 -1.1,-2.64 -2.6,-4.19 -4.6,-4.19 -4,0 -4,3.69 -4,4.53 0,1.59 0.3,3.55 2.6,9.67 0.6,1.49 0.9,2.19 0.9,3.19 0,2.23 -1.7,4.08 -4.1,4.08 -4.8,0 -6.6,-7.22 -6.6,-7.67 0,-0.5 0.5,-0.5 0.6,-0.5 0.5,0 0.6,0.1 0.8,0.9 1.3,4.63 3.3,6.17 5,6.17 0.5,0 1.3,-0.04 1.3,-1.64 0,-1.25 -0.6,-2.64 -0.9,-3.48 -2.2,-5.88 -2.8,-8.17 -2.8,-10.06 0,-4.54 3.3,-6.29 7.1,-6.29 0.8,0 3.1,0 5.1,3.49 1.4,-3.19 4.8,-3.49 6.3,-3.49 3.7,0 5.9,3.15 7.2,6.13 1.7,3.89 3.3,10.56 3.3,12.95 0,2.75 -1.4,3.49 -2.2,3.49 -1.2,0 -2.5,-1.3 -2.5,-2.39 0,-0.64 0.3,-0.94 0.8,-1.35 0.5,-0.54 1.7,-1.84 1.7,-4.23 0,-1.69 -1.4,-6.58 -2.7,-9.11 -1.3,-2.64 -3,-4.39 -5.5,-4.39 -2.3,0 -3.7,1.5 -3.7,4.33 0,1.4 0.4,2.95 0.6,3.64 z"
           inkscape:connector-curvature="0"
           style="fill:#000000;stroke-width:0" /><path
           id="path6584"
           d="m 1317.3,299.27 h -1.2 c -0.1,-0.77 -0.4,-2.83 -0.9,-3.18 -0.3,-0.2 -2.9,-0.2 -3.4,-0.2 h -6.4 c 3.6,3.24 4.8,4.2 6.9,5.84 2.6,2.07 5,4.22 5,7.54 0,4.21 -3.7,6.79 -8.1,6.79 -4.4,0 -7.3,-3.03 -7.3,-6.23 0,-1.78 1.5,-1.95 1.9,-1.95 0.8,0 1.8,0.59 1.8,1.84 0,0.62 -0.2,1.84 -2,1.84 1,2.47 3.4,3.24 5,3.24 3.5,0 5.3,-2.71 5.3,-5.53 0,-3.04 -2.1,-5.44 -3.2,-6.69 l -8.4,-8.3 c -0.4,-0.31 -0.4,-0.39 -0.4,-1.36 h 14.4 z"
           inkscape:connector-curvature="0"
           style="fill:#000000;stroke-width:0" /><path
           id="path6586"
           d="m 1316.9,274.7 0,0.05 0.1,0.04 0,0.05 0,0.04 0,0.04 0,0.03 0,0.04 0,0.03 0,0.04 0,0.03 0,0.03 0,0.03 0,0.02 0,0.03 0,0.02 0.1,0.02 0,0.02 0,0.02 0,0.02 0,0.02 0,0.01 0,0.02 0,0.01 0,0.01 0,0.01 0,0.01 0,0.01 0,0.01 0,0.01 0,0 0,0.01 0,0 c 0,0.77 -0.7,1.11 -1.2,1.11 -0.8,0 -1.5,-0.65 -1.6,-1.33 -0.6,0.96 -1.8,1.99 -3.6,1.99 v -0.97 c 2.4,0 3.1,-2.61 3.1,-2.97 0,-0.06 0,-0.12 -0.1,-0.51 l -1.6,-6.27 c -0.1,-0.53 -0.1,-0.59 -0.7,-1.3 -1.2,-1.47 -2.9,-2.37 -4.2,-2.37 -1.8,0 -2.6,1.5 -2.6,3.31 0,1.53 0.9,5.44 1.8,6.97 1.5,2.44 3.1,3.14 4.3,3.14 v 0.97 c -4.4,0 -8.9,-4.66 -8.9,-9.64 0,-3.6 2.4,-5.72 5.3,-5.72 1.6,0 3.1,0.8 4.3,1.87 l -0.7,-3.12 c -0.4,-1.47 -0.7,-2.41 -2,-3.59 -1.5,-1.29 -3,-1.29 -3.9,-1.29 -1.6,0 -2,0.1 -2.7,0.24 0.9,0.42 1.1,1.25 1.1,1.75 0,0.83 -0.6,1.28 -1.3,1.28 -1,0 -2,-0.8 -2,-2.12 0,-2.1 3,-2.13 4.9,-2.13 5.5,0 7.9,2.78 8.3,4.78 z"
           inkscape:connector-curvature="0"
           style="fill:#000000;stroke-width:0" /><path
           id="path6588"
           d="m 1326.4,262.4 0,-0.36 0,-0.37 0,-0.38 -0.1,-0.38 0,-0.2 -0.1,-0.19 0,-0.2 0,-0.19 -0.1,-0.2 0,-0.2 -0.1,-0.2 -0.1,-0.2 -0.1,-0.21 0,-0.2 -0.1,-0.2 -0.1,-0.21 -0.1,-0.2 -0.1,-0.21 -0.2,-0.2 -0.1,-0.21 -0.1,-0.21 -0.2,-0.21 -0.2,-0.2 -0.1,-0.21 -0.2,-0.21 -0.2,-0.21 -0.2,-0.2 -0.2,-0.21 c -0.2,-0.14 -0.3,-0.25 -0.3,-0.43 0,-0.25 0.3,-0.48 0.5,-0.48 0.5,0 3.5,2.78 3.5,6.92 0,2.17 -0.9,3.8 -2.5,3.8 -1.1,0 -2,-0.91 -2,-1.98 0,-1.11 0.8,-2.02 2.1,-2.02 0.8,0 1.3,0.56 1.4,0.56 z"
           inkscape:connector-curvature="0"
           style="fill:#000000;stroke-width:0" /><path
           id="path6590"
           d="m 1342.2,283.62 0,0.05 0,0.06 0,0.05 0,0.06 0,0.05 0,0.06 -0.1,0.05 0,0.06 0,0.06 0,0.05 0,0.06 -0.1,0.05 0,0.06 0,0.05 -0.1,0.05 0,0.05 -0.1,0.05 0,0.05 -0.1,0.04 0,0.04 -0.1,0.04 0,0.04 -0.1,0.04 -0.1,0.03 0,0.03 -0.1,0.02 -0.1,0.03 0,0.01 -0.1,0.02 -0.1,0.01 -0.1,0.01 -0.1,0 c -0.9,0 -1.9,-0.91 -1.9,-1.92 0,-0.6 0.4,-1.33 1.4,-1.33 1,0 1.9,0.98 1.9,1.92 z"
           inkscape:connector-curvature="0"
           style="fill:#000000;stroke-width:0" /><path
           id="path6592"
           d="m 1335.1,265.92 0,-0.17 -0.1,-0.17 0,-0.08 -0.1,-0.09 0,-0.09 0,-0.08 0,-0.09 0,-0.09 -0.1,-0.1 0,-0.09 0,-0.1 0,-0.05 0,-0.06 0,-0.05 0,-0.05 0,-0.06 0,-0.05 c 0,-1.64 1.4,-2.95 3.3,-2.95 3.5,0 5,4.79 5,5.32 0,0.46 -0.4,0.46 -0.5,0.46 -0.5,0 -0.6,-0.21 -0.7,-0.6 -0.8,-2.78 -2.3,-4.22 -3.7,-4.22 -0.7,0 -0.9,0.46 -0.9,1.22 0,0.8 0.3,1.47 0.6,2.24 0.3,0.94 0.7,1.87 1.1,2.78 0.3,0.84 1.6,4.01 1.7,4.44 0.1,0.34 0.2,0.76 0.2,1.11 0,1.64 -1.4,2.95 -3.3,2.95 -3.4,0 -5,-4.74 -5,-5.33 0,-0.45 0.4,-0.45 0.6,-0.45 0.4,0 0.5,0.17 0.6,0.56 0.9,3 2.4,4.25 3.7,4.25 0.6,0 0.9,-0.28 0.9,-1.22 0,-0.8 -0.2,-1.33 -1.1,-3.48 z"
           inkscape:connector-curvature="0"
           style="fill:#000000;stroke-width:0" /></g>    </g>
  </g>
</svg>
